G75*
%MOIN*%
%OFA0B0*%
%FSLAX25Y25*%
%IPPOS*%
%LPD*%
%AMOC8*
5,1,8,0,0,1.08239X$1,22.5*
%
%ADD10C,0.00800*%
D10*
X0039786Y0028959D02*
X0049628Y0028959D01*
X0049628Y0109668D01*
X0039786Y0109668D01*
X0039786Y0028959D01*
X0057833Y0028506D02*
X0057833Y0033506D01*
X0060333Y0036006D01*
X0057833Y0038506D01*
X0057833Y0043506D01*
X0060333Y0046006D01*
X0057833Y0048506D01*
X0057833Y0053506D01*
X0060333Y0056006D01*
X0057833Y0058506D01*
X0057833Y0063506D01*
X0060333Y0066006D01*
X0057833Y0068506D01*
X0057833Y0073506D01*
X0060333Y0076006D01*
X0057833Y0078506D01*
X0057833Y0083506D01*
X0060333Y0086006D01*
X0057833Y0088506D01*
X0057833Y0093506D01*
X0060333Y0096006D01*
X0057833Y0098506D01*
X0057833Y0103506D01*
X0060333Y0106006D01*
X0057833Y0108506D01*
X0057833Y0113506D01*
X0060333Y0116006D01*
X0057833Y0118506D01*
X0057833Y0123506D01*
X0060333Y0126006D01*
X0065333Y0126006D01*
X0067833Y0123506D01*
X0067833Y0118506D01*
X0065333Y0116006D01*
X0067833Y0113506D01*
X0067833Y0108506D01*
X0065333Y0106006D01*
X0067833Y0103506D01*
X0067833Y0098506D01*
X0065333Y0096006D01*
X0067833Y0093506D01*
X0067833Y0088506D01*
X0065333Y0086006D01*
X0067833Y0083506D01*
X0067833Y0078506D01*
X0065333Y0076006D01*
X0067833Y0073506D01*
X0067833Y0068506D01*
X0065333Y0066006D01*
X0067833Y0063506D01*
X0067833Y0058506D01*
X0065333Y0056006D01*
X0067833Y0053506D01*
X0067833Y0048506D01*
X0065333Y0046006D01*
X0067833Y0043506D01*
X0067833Y0038506D01*
X0065333Y0036006D01*
X0067833Y0033506D01*
X0067833Y0028506D01*
X0065333Y0026006D01*
X0060333Y0026006D01*
X0057833Y0028506D01*
X0070233Y0029607D02*
X0070934Y0028906D01*
X0072335Y0028906D01*
X0073035Y0029607D01*
X0073035Y0031008D01*
X0071634Y0031008D01*
X0070233Y0032409D02*
X0070233Y0029607D01*
X0070233Y0032409D02*
X0070934Y0033110D01*
X0072335Y0033110D01*
X0073035Y0032409D01*
X0074837Y0033110D02*
X0077639Y0028906D01*
X0077639Y0033110D01*
X0079441Y0033110D02*
X0081543Y0033110D01*
X0082243Y0032409D01*
X0082243Y0029607D01*
X0081543Y0028906D01*
X0079441Y0028906D01*
X0079441Y0033110D01*
X0074837Y0033110D02*
X0074837Y0028906D01*
X0076238Y0038906D02*
X0076238Y0043110D01*
X0074837Y0043110D02*
X0077639Y0043110D01*
X0079441Y0043110D02*
X0081543Y0043110D01*
X0082243Y0042409D01*
X0082243Y0041008D01*
X0081543Y0040307D01*
X0079441Y0040307D01*
X0079441Y0038906D02*
X0079441Y0043110D01*
X0080842Y0040307D02*
X0082243Y0038906D01*
X0073035Y0039607D02*
X0072335Y0038906D01*
X0070233Y0038906D01*
X0070233Y0043110D01*
X0072335Y0043110D01*
X0073035Y0042409D01*
X0073035Y0039607D01*
X0073035Y0048906D02*
X0071634Y0050307D01*
X0072335Y0050307D02*
X0073035Y0051008D01*
X0073035Y0052409D01*
X0072335Y0053110D01*
X0070233Y0053110D01*
X0070233Y0048906D01*
X0070233Y0050307D02*
X0072335Y0050307D01*
X0074837Y0049607D02*
X0075538Y0048906D01*
X0076939Y0048906D01*
X0077639Y0049607D01*
X0077639Y0050307D01*
X0076939Y0051008D01*
X0075538Y0051008D01*
X0074837Y0051709D01*
X0074837Y0052409D01*
X0075538Y0053110D01*
X0076939Y0053110D01*
X0077639Y0052409D01*
X0079441Y0053110D02*
X0079441Y0050307D01*
X0080842Y0048906D01*
X0082243Y0050307D01*
X0082243Y0053110D01*
X0082243Y0058906D02*
X0082243Y0063110D01*
X0080842Y0061709D01*
X0079441Y0063110D01*
X0079441Y0058906D01*
X0077639Y0058906D02*
X0077639Y0063110D01*
X0074837Y0063110D02*
X0074837Y0058906D01*
X0076238Y0060307D01*
X0077639Y0058906D01*
X0073035Y0061008D02*
X0072335Y0060307D01*
X0070233Y0060307D01*
X0070233Y0058906D02*
X0070233Y0063110D01*
X0072335Y0063110D01*
X0073035Y0062409D01*
X0073035Y0061008D01*
X0074837Y0068906D02*
X0076238Y0070307D01*
X0077639Y0068906D01*
X0077639Y0073110D01*
X0079441Y0073110D02*
X0080842Y0071709D01*
X0082243Y0073110D01*
X0082243Y0068906D01*
X0084045Y0069607D02*
X0084745Y0068906D01*
X0086147Y0068906D01*
X0086847Y0069607D01*
X0086847Y0072409D01*
X0084045Y0069607D01*
X0084045Y0072409D01*
X0084745Y0073110D01*
X0086147Y0073110D01*
X0086847Y0072409D01*
X0093421Y0071709D02*
X0093421Y0068906D01*
X0093421Y0071008D02*
X0096224Y0071008D01*
X0096224Y0071709D02*
X0096224Y0068906D01*
X0098025Y0068906D02*
X0100127Y0068906D01*
X0100828Y0069607D01*
X0100828Y0072409D01*
X0100127Y0073110D01*
X0098025Y0073110D01*
X0098025Y0068906D01*
X0096224Y0071709D02*
X0094822Y0073110D01*
X0093421Y0071709D01*
X0093421Y0078906D02*
X0093421Y0083110D01*
X0095523Y0083110D01*
X0096224Y0082409D01*
X0096224Y0081008D01*
X0095523Y0080307D01*
X0093421Y0080307D01*
X0094822Y0080307D02*
X0096224Y0078906D01*
X0099426Y0078906D02*
X0099426Y0083110D01*
X0098025Y0083110D02*
X0100828Y0083110D01*
X0102629Y0082409D02*
X0102629Y0081709D01*
X0103330Y0081008D01*
X0104731Y0081008D01*
X0105432Y0080307D01*
X0105432Y0079607D01*
X0104731Y0078906D01*
X0103330Y0078906D01*
X0102629Y0079607D01*
X0102629Y0082409D02*
X0103330Y0083110D01*
X0104731Y0083110D01*
X0105432Y0082409D01*
X0108333Y0083506D02*
X0110833Y0086006D01*
X0108333Y0088506D01*
X0108333Y0093506D01*
X0110833Y0096006D01*
X0108333Y0098506D01*
X0108333Y0103506D01*
X0110833Y0106006D01*
X0108333Y0108506D01*
X0108333Y0113506D01*
X0110833Y0116006D01*
X0108333Y0118506D01*
X0108333Y0123506D01*
X0110833Y0126006D01*
X0115833Y0126006D01*
X0118333Y0123506D01*
X0118333Y0118506D01*
X0115833Y0116006D01*
X0118333Y0113506D01*
X0118333Y0108506D01*
X0115833Y0106006D01*
X0118333Y0103506D01*
X0118333Y0098506D01*
X0115833Y0096006D01*
X0118333Y0093506D01*
X0118333Y0088506D01*
X0115833Y0086006D01*
X0118333Y0083506D01*
X0118333Y0078506D01*
X0115833Y0076006D01*
X0118333Y0073506D01*
X0118333Y0068506D01*
X0115833Y0066006D01*
X0118333Y0063506D01*
X0118333Y0058506D01*
X0115833Y0056006D01*
X0118333Y0053506D01*
X0118333Y0048506D01*
X0115833Y0046006D01*
X0118333Y0043506D01*
X0118333Y0038506D01*
X0115833Y0036006D01*
X0118333Y0033506D01*
X0118333Y0028506D01*
X0115833Y0026006D01*
X0110833Y0026006D01*
X0108333Y0028506D01*
X0108333Y0033506D01*
X0110833Y0036006D01*
X0108333Y0038506D01*
X0108333Y0043506D01*
X0110833Y0046006D01*
X0108333Y0048506D01*
X0108333Y0053506D01*
X0110833Y0056006D01*
X0108333Y0058506D01*
X0108333Y0063506D01*
X0110833Y0066006D01*
X0108333Y0068506D01*
X0108333Y0073506D01*
X0110833Y0076006D01*
X0108333Y0078506D01*
X0108333Y0083506D01*
X0104731Y0088906D02*
X0103330Y0088906D01*
X0102629Y0089607D01*
X0104030Y0091008D02*
X0104731Y0091008D01*
X0105432Y0090307D01*
X0105432Y0089607D01*
X0104731Y0088906D01*
X0104731Y0091008D02*
X0105432Y0091709D01*
X0105432Y0092409D01*
X0104731Y0093110D01*
X0103330Y0093110D01*
X0102629Y0092409D01*
X0100828Y0092409D02*
X0100828Y0089607D01*
X0100127Y0088906D01*
X0098025Y0088906D01*
X0098025Y0093110D01*
X0100127Y0093110D01*
X0100828Y0092409D01*
X0096224Y0091709D02*
X0096224Y0088906D01*
X0096224Y0091008D02*
X0093421Y0091008D01*
X0093421Y0091709D02*
X0093421Y0088906D01*
X0093421Y0091709D02*
X0094822Y0093110D01*
X0096224Y0091709D01*
X0096224Y0098906D02*
X0096224Y0101709D01*
X0094822Y0103110D01*
X0093421Y0101709D01*
X0093421Y0098906D01*
X0093421Y0101008D02*
X0096224Y0101008D01*
X0098025Y0103110D02*
X0098025Y0098906D01*
X0100127Y0098906D01*
X0100828Y0099607D01*
X0100828Y0102409D01*
X0100127Y0103110D01*
X0098025Y0103110D01*
X0102629Y0102409D02*
X0103330Y0103110D01*
X0104731Y0103110D01*
X0105432Y0102409D01*
X0105432Y0101709D01*
X0102629Y0098906D01*
X0105432Y0098906D01*
X0105432Y0108906D02*
X0102629Y0108906D01*
X0104030Y0108906D02*
X0104030Y0113110D01*
X0102629Y0111709D01*
X0100828Y0112409D02*
X0100828Y0109607D01*
X0100127Y0108906D01*
X0098025Y0108906D01*
X0098025Y0113110D01*
X0100127Y0113110D01*
X0100828Y0112409D01*
X0096224Y0111709D02*
X0096224Y0108906D01*
X0096224Y0111008D02*
X0093421Y0111008D01*
X0093421Y0111709D02*
X0093421Y0108906D01*
X0093421Y0111709D02*
X0094822Y0113110D01*
X0096224Y0111709D01*
X0096224Y0118906D02*
X0096224Y0121709D01*
X0094822Y0123110D01*
X0093421Y0121709D01*
X0093421Y0118906D01*
X0093421Y0121008D02*
X0096224Y0121008D01*
X0098025Y0118906D02*
X0100127Y0118906D01*
X0100828Y0119607D01*
X0100828Y0122409D01*
X0100127Y0123110D01*
X0098025Y0123110D01*
X0098025Y0118906D01*
X0102629Y0119607D02*
X0105432Y0122409D01*
X0105432Y0119607D01*
X0104731Y0118906D01*
X0103330Y0118906D01*
X0102629Y0119607D01*
X0102629Y0122409D01*
X0103330Y0123110D01*
X0104731Y0123110D01*
X0105432Y0122409D01*
X0114786Y0128369D02*
X0136233Y0109706D01*
X0136243Y0109668D02*
X0136243Y0028959D01*
X0126400Y0028959D01*
X0126400Y0109668D01*
X0136243Y0109668D01*
X0134687Y0112115D02*
X0133286Y0112115D01*
X0132585Y0112816D01*
X0135387Y0115618D01*
X0135387Y0112816D01*
X0134687Y0112115D01*
X0132585Y0112816D02*
X0132585Y0115618D01*
X0133286Y0116319D01*
X0134687Y0116319D01*
X0135387Y0115618D01*
X0130783Y0115618D02*
X0130083Y0116319D01*
X0128682Y0116319D01*
X0127981Y0115618D01*
X0130783Y0115618D02*
X0130783Y0114917D01*
X0127981Y0112115D01*
X0130783Y0112115D01*
X0105432Y0073110D02*
X0102629Y0073110D01*
X0102629Y0071008D01*
X0104030Y0071709D01*
X0104731Y0071709D01*
X0105432Y0071008D01*
X0105432Y0069607D01*
X0104731Y0068906D01*
X0103330Y0068906D01*
X0102629Y0069607D01*
X0102629Y0063110D02*
X0105431Y0063110D01*
X0102629Y0063110D02*
X0102629Y0058906D01*
X0102629Y0061008D02*
X0104030Y0061008D01*
X0100828Y0058906D02*
X0098025Y0058906D01*
X0098025Y0063110D01*
X0100828Y0063110D01*
X0099426Y0061008D02*
X0098025Y0061008D01*
X0096224Y0061008D02*
X0096224Y0062409D01*
X0095523Y0063110D01*
X0093421Y0063110D01*
X0093421Y0058906D01*
X0093421Y0060307D02*
X0095523Y0060307D01*
X0096224Y0061008D01*
X0094822Y0060307D02*
X0096224Y0058906D01*
X0091620Y0060307D02*
X0091620Y0063110D01*
X0091620Y0060307D02*
X0090219Y0058906D01*
X0088817Y0060307D01*
X0088817Y0063110D01*
X0085446Y0063110D02*
X0085446Y0058906D01*
X0084045Y0058906D02*
X0086847Y0058906D01*
X0084045Y0061709D02*
X0085446Y0063110D01*
X0079441Y0068906D02*
X0079441Y0073110D01*
X0074837Y0073110D02*
X0074837Y0068906D01*
X0073035Y0071008D02*
X0072335Y0070307D01*
X0070233Y0070307D01*
X0070233Y0068906D02*
X0070233Y0073110D01*
X0072335Y0073110D01*
X0073035Y0072409D01*
X0073035Y0071008D01*
X0073035Y0078906D02*
X0071634Y0080307D01*
X0072335Y0080307D02*
X0070233Y0080307D01*
X0070233Y0078906D02*
X0070233Y0083110D01*
X0072335Y0083110D01*
X0073035Y0082409D01*
X0073035Y0081008D01*
X0072335Y0080307D01*
X0074837Y0079607D02*
X0075538Y0078906D01*
X0076939Y0078906D01*
X0077639Y0079607D01*
X0077639Y0080307D01*
X0076939Y0081008D01*
X0075538Y0081008D01*
X0074837Y0081709D01*
X0074837Y0082409D01*
X0075538Y0083110D01*
X0076939Y0083110D01*
X0077639Y0082409D01*
X0079441Y0083110D02*
X0082243Y0083110D01*
X0080842Y0083110D02*
X0080842Y0078906D01*
X0080142Y0088906D02*
X0079441Y0089607D01*
X0079441Y0090307D01*
X0080142Y0091008D01*
X0081543Y0091008D01*
X0082243Y0090307D01*
X0082243Y0089607D01*
X0081543Y0088906D01*
X0080142Y0088906D01*
X0080142Y0091008D02*
X0079441Y0091709D01*
X0079441Y0092409D01*
X0080142Y0093110D01*
X0081543Y0093110D01*
X0082243Y0092409D01*
X0082243Y0091709D01*
X0081543Y0091008D01*
X0077639Y0089607D02*
X0077639Y0092409D01*
X0076939Y0093110D01*
X0075538Y0093110D01*
X0074837Y0092409D01*
X0074837Y0089607D01*
X0075538Y0088906D01*
X0076939Y0088906D01*
X0077639Y0089607D01*
X0073035Y0089607D02*
X0073035Y0092409D01*
X0072335Y0093110D01*
X0070233Y0093110D01*
X0070233Y0088906D01*
X0072335Y0088906D01*
X0073035Y0089607D01*
X0072335Y0098906D02*
X0070233Y0098906D01*
X0070233Y0103110D01*
X0072335Y0103110D01*
X0073035Y0102409D01*
X0073035Y0099607D01*
X0072335Y0098906D01*
X0074837Y0098906D02*
X0076238Y0098906D01*
X0075538Y0098906D02*
X0075538Y0103110D01*
X0076238Y0103110D02*
X0074837Y0103110D01*
X0077906Y0103110D02*
X0080709Y0098906D01*
X0080709Y0103110D01*
X0077906Y0103110D02*
X0077906Y0098906D01*
X0076939Y0108906D02*
X0075538Y0108906D01*
X0074837Y0109607D01*
X0074837Y0112409D01*
X0075538Y0113110D01*
X0076939Y0113110D01*
X0077639Y0112409D01*
X0077639Y0109607D01*
X0076939Y0108906D01*
X0079441Y0109607D02*
X0080142Y0108906D01*
X0081543Y0108906D01*
X0082243Y0109607D01*
X0082243Y0113110D01*
X0084045Y0113110D02*
X0086847Y0113110D01*
X0085446Y0113110D02*
X0085446Y0108906D01*
X0079441Y0109607D02*
X0079441Y0113110D01*
X0080142Y0118906D02*
X0079441Y0119607D01*
X0079441Y0122409D01*
X0080142Y0123110D01*
X0081543Y0123110D01*
X0082243Y0122409D01*
X0082243Y0119607D02*
X0081543Y0118906D01*
X0080142Y0118906D01*
X0077639Y0119607D02*
X0076939Y0118906D01*
X0075538Y0118906D01*
X0074837Y0119607D01*
X0074837Y0122409D01*
X0075538Y0123110D01*
X0076939Y0123110D01*
X0077639Y0122409D01*
X0073035Y0123110D02*
X0073035Y0120307D01*
X0071634Y0118906D01*
X0070233Y0120307D01*
X0070233Y0123110D01*
X0061243Y0128369D02*
X0039833Y0109706D01*
X0043729Y0112312D02*
X0046532Y0112312D01*
X0045130Y0112312D02*
X0045130Y0116515D01*
X0043729Y0115114D01*
X0045020Y0120894D02*
X0046421Y0120894D01*
X0047122Y0121595D01*
X0047122Y0125098D01*
X0048924Y0125098D02*
X0051025Y0125098D01*
X0051726Y0124397D01*
X0051726Y0122996D01*
X0051025Y0122296D01*
X0048924Y0122296D01*
X0048924Y0120894D02*
X0048924Y0125098D01*
X0044320Y0125098D02*
X0044320Y0121595D01*
X0045020Y0120894D01*
X0070233Y0113110D02*
X0070233Y0108906D01*
X0072335Y0108906D01*
X0073035Y0109607D01*
X0073035Y0112409D01*
X0072335Y0113110D01*
X0070233Y0113110D01*
X0098726Y0053110D02*
X0098025Y0052409D01*
X0098025Y0049607D01*
X0098726Y0048906D01*
X0100127Y0048906D01*
X0100828Y0049607D01*
X0100828Y0052409D01*
X0100127Y0053110D01*
X0098726Y0053110D01*
X0102629Y0053110D02*
X0105432Y0048906D01*
X0105432Y0053110D01*
X0102629Y0053110D02*
X0102629Y0048906D01*
X0103330Y0043110D02*
X0102629Y0042409D01*
X0102629Y0041709D01*
X0103330Y0041008D01*
X0104731Y0041008D01*
X0105432Y0040307D01*
X0105432Y0039607D01*
X0104731Y0038906D01*
X0103330Y0038906D01*
X0102629Y0039607D01*
X0103330Y0043110D02*
X0104731Y0043110D01*
X0105432Y0042409D01*
X0100828Y0043110D02*
X0098025Y0043110D01*
X0099426Y0043110D02*
X0099426Y0038906D01*
X0096224Y0039607D02*
X0095523Y0038906D01*
X0094122Y0038906D01*
X0093421Y0039607D01*
X0093421Y0042409D01*
X0094122Y0043110D01*
X0095523Y0043110D01*
X0096224Y0042409D01*
X0094822Y0033110D02*
X0096224Y0031709D01*
X0096224Y0028906D01*
X0098025Y0028906D02*
X0100127Y0028906D01*
X0100828Y0029607D01*
X0100828Y0032409D01*
X0100127Y0033110D01*
X0098025Y0033110D01*
X0098025Y0028906D01*
X0096224Y0031008D02*
X0093421Y0031008D01*
X0093421Y0031709D02*
X0093421Y0028906D01*
X0093421Y0031709D02*
X0094822Y0033110D01*
X0102629Y0031008D02*
X0105432Y0031008D01*
X0104731Y0028906D02*
X0104731Y0033110D01*
X0102629Y0031008D01*
M02*
