G75*
%MOIN*%
%OFA0B0*%
%FSLAX25Y25*%
%IPPOS*%
%LPD*%
%AMOC8*
5,1,8,0,0,1.08239X$1,22.5*
%
%ADD10C,0.00800*%
%ADD11C,0.06600*%
%ADD12C,0.05750*%
%ADD13C,0.01600*%
D10*
X0036833Y0026006D02*
X0036833Y0128369D01*
X0139195Y0128369D01*
X0139195Y0026006D01*
X0036833Y0026006D01*
D11*
X0062833Y0031006D03*
X0062833Y0041006D03*
X0062833Y0051006D03*
X0062833Y0061006D03*
X0062833Y0071006D03*
X0062833Y0081006D03*
X0062833Y0091006D03*
X0062833Y0101006D03*
X0062833Y0111006D03*
X0062833Y0121006D03*
X0113333Y0121006D03*
X0113333Y0111006D03*
X0113333Y0101006D03*
X0113333Y0091006D03*
X0113333Y0081006D03*
X0113333Y0071006D03*
X0113333Y0061006D03*
X0113333Y0051006D03*
X0113333Y0041006D03*
X0113333Y0031006D03*
D12*
X0131321Y0033880D03*
X0131321Y0041754D03*
X0131321Y0049628D03*
X0131321Y0057502D03*
X0131321Y0065376D03*
X0131321Y0073250D03*
X0131321Y0081124D03*
X0131321Y0088998D03*
X0131321Y0096872D03*
X0131321Y0104746D03*
X0044707Y0104746D03*
X0044707Y0096872D03*
X0044707Y0088998D03*
X0044707Y0081124D03*
X0044707Y0073250D03*
X0044707Y0065376D03*
X0044707Y0057502D03*
X0044707Y0049628D03*
X0044707Y0041754D03*
X0044707Y0033880D03*
D13*
X0047581Y0031006D01*
X0062833Y0031006D01*
X0062833Y0041006D02*
X0045455Y0041006D01*
X0044707Y0041754D01*
X0044707Y0049628D02*
X0046085Y0051006D01*
X0062833Y0051006D01*
X0062833Y0061006D02*
X0048211Y0061006D01*
X0044707Y0057502D01*
X0044707Y0065376D02*
X0050337Y0071006D01*
X0062833Y0071006D01*
X0062833Y0081006D02*
X0052463Y0081006D01*
X0044707Y0073250D01*
X0044707Y0081124D02*
X0054589Y0091006D01*
X0062833Y0091006D01*
X0062833Y0101006D02*
X0056715Y0101006D01*
X0044707Y0088998D01*
X0044707Y0096872D02*
X0058841Y0111006D01*
X0062833Y0111006D01*
X0062833Y0121006D02*
X0060967Y0121006D01*
X0044707Y0104746D01*
X0113333Y0101006D02*
X0119313Y0101006D01*
X0131321Y0088998D01*
X0131321Y0081124D02*
X0121439Y0091006D01*
X0113333Y0091006D01*
X0113333Y0081006D02*
X0123565Y0081006D01*
X0131321Y0073250D01*
X0125691Y0071006D02*
X0113333Y0071006D01*
X0113333Y0061006D02*
X0127817Y0061006D01*
X0131321Y0057502D01*
X0129943Y0051006D02*
X0113333Y0051006D01*
X0113333Y0041006D02*
X0130573Y0041006D01*
X0131321Y0041754D01*
X0131321Y0033880D02*
X0128447Y0031006D01*
X0113333Y0031006D01*
X0131321Y0049628D02*
X0129943Y0051006D01*
X0131321Y0065376D02*
X0125691Y0071006D01*
X0131321Y0096872D02*
X0117187Y0111006D01*
X0113333Y0111006D01*
X0113333Y0121006D02*
X0115061Y0121006D01*
X0131321Y0104746D01*
M02*
