G75*
%MOIN*%
%OFA0B0*%
%FSLAX25Y25*%
%IPPOS*%
%LPD*%
%AMOC8*
5,1,8,0,0,1.08239X$1,22.5*
%
%ADD10C,0.01100*%
%ADD11C,0.00800*%
%ADD12C,0.00100*%
%ADD13R,0.01910X0.01950*%
D10*
X0092895Y0054115D02*
X0092895Y0057068D01*
X0093879Y0058052D01*
X0094863Y0058052D01*
X0095847Y0057068D01*
X0095847Y0054115D01*
X0092895Y0054115D02*
X0098800Y0054115D01*
X0098800Y0057068D01*
X0097816Y0058052D01*
X0096832Y0058052D01*
X0095847Y0057068D01*
X0094863Y0060561D02*
X0096832Y0062529D01*
X0096832Y0063513D01*
X0095847Y0065932D02*
X0093879Y0065932D01*
X0092895Y0066916D01*
X0092895Y0068885D01*
X0094863Y0069869D02*
X0094863Y0065932D01*
X0095847Y0065932D02*
X0096832Y0066916D01*
X0096832Y0068885D01*
X0095847Y0069869D01*
X0094863Y0069869D01*
X0093879Y0072378D02*
X0094863Y0073362D01*
X0094863Y0076314D01*
X0095847Y0076314D02*
X0096832Y0075330D01*
X0096832Y0073362D01*
X0093879Y0072378D02*
X0092895Y0073362D01*
X0092895Y0076314D01*
X0095847Y0076314D01*
X0094863Y0078823D02*
X0096832Y0081776D01*
X0095847Y0084194D02*
X0093879Y0084194D01*
X0092895Y0085179D01*
X0092895Y0087147D01*
X0093879Y0088131D01*
X0095847Y0088131D01*
X0096832Y0087147D01*
X0096832Y0085179D01*
X0095847Y0084194D01*
X0092895Y0081776D02*
X0094863Y0078823D01*
X0092895Y0078823D02*
X0098800Y0078823D01*
X0101163Y0079408D02*
X0102147Y0078424D01*
X0104115Y0078424D01*
X0105099Y0079408D01*
X0105099Y0081376D01*
X0104115Y0082360D01*
X0103131Y0082360D01*
X0103131Y0078424D01*
X0101163Y0079408D02*
X0101163Y0081376D01*
X0102147Y0084869D02*
X0104115Y0084869D01*
X0105099Y0085853D01*
X0105099Y0087822D01*
X0104115Y0088806D01*
X0103131Y0088806D01*
X0103131Y0084869D01*
X0102147Y0084869D02*
X0101163Y0085853D01*
X0101163Y0087822D01*
X0096832Y0090640D02*
X0093879Y0090640D01*
X0092895Y0091624D01*
X0092895Y0094577D01*
X0096832Y0094577D01*
X0096832Y0097085D02*
X0096832Y0099054D01*
X0097816Y0098070D02*
X0093879Y0098070D01*
X0092895Y0099054D01*
X0102147Y0075915D02*
X0101163Y0074931D01*
X0101163Y0071978D01*
X0107068Y0071978D01*
X0107068Y0074931D01*
X0106083Y0075915D01*
X0105099Y0075915D01*
X0104115Y0074931D01*
X0104115Y0071978D01*
X0107068Y0069469D02*
X0101163Y0065533D01*
X0101163Y0069469D02*
X0107068Y0065533D01*
X0104115Y0074931D02*
X0103131Y0075915D01*
X0102147Y0075915D01*
X0096832Y0060561D02*
X0092895Y0060561D01*
D11*
X0056118Y0120894D02*
X0054016Y0120894D01*
X0053316Y0121595D01*
X0053316Y0124397D01*
X0054016Y0125098D01*
X0056118Y0125098D01*
X0056118Y0120894D01*
X0051514Y0121595D02*
X0051514Y0124397D01*
X0050814Y0125098D01*
X0049412Y0125098D01*
X0048712Y0124397D01*
X0048712Y0121595D01*
X0049412Y0120894D01*
X0050814Y0120894D01*
X0051514Y0121595D01*
X0046910Y0120894D02*
X0045509Y0122296D01*
X0044108Y0120894D01*
X0044108Y0125098D01*
X0042306Y0125098D02*
X0039504Y0120894D01*
X0039504Y0125098D01*
X0042306Y0125098D02*
X0042306Y0120894D01*
X0046910Y0120894D02*
X0046910Y0125098D01*
D12*
X0068793Y0047936D02*
X0070263Y0046306D01*
X0078363Y0046306D01*
X0078653Y0047836D01*
X0077863Y0047826D01*
X0077833Y0047856D01*
X0077823Y0047876D01*
X0077923Y0047966D01*
X0078303Y0048316D01*
X0078421Y0048451D01*
X0078513Y0048606D01*
X0078723Y0049126D01*
X0078763Y0049316D01*
X0078773Y0050096D01*
X0078701Y0050523D01*
X0078543Y0050926D01*
X0078330Y0051281D01*
X0078073Y0051606D01*
X0077722Y0051917D01*
X0077313Y0052146D01*
X0076481Y0052411D01*
X0075615Y0052522D01*
X0074743Y0052476D01*
X0074201Y0052349D01*
X0073689Y0052130D01*
X0073223Y0051826D01*
X0072945Y0051567D01*
X0072714Y0051265D01*
X0072539Y0050928D01*
X0072423Y0050566D01*
X0072348Y0050088D01*
X0072342Y0049605D01*
X0072403Y0049126D01*
X0072507Y0048794D01*
X0072679Y0048491D01*
X0072911Y0048231D01*
X0073193Y0048026D01*
X0074363Y0048026D01*
X0074393Y0048056D01*
X0074373Y0048056D01*
X0074335Y0048064D01*
X0074303Y0048086D01*
X0074273Y0048106D01*
X0074046Y0048227D01*
X0073852Y0048396D01*
X0073703Y0048606D01*
X0073585Y0048882D01*
X0073523Y0049176D01*
X0073520Y0049545D01*
X0073593Y0049906D01*
X0073731Y0050208D01*
X0073942Y0050464D01*
X0074212Y0050658D01*
X0074523Y0050776D01*
X0075298Y0050897D01*
X0076083Y0050896D01*
X0076475Y0050819D01*
X0076839Y0050655D01*
X0077158Y0050413D01*
X0077413Y0050106D01*
X0077520Y0049900D01*
X0077584Y0049677D01*
X0077603Y0049446D01*
X0077583Y0049016D01*
X0077551Y0048860D01*
X0077483Y0048716D01*
X0077257Y0048427D01*
X0076983Y0048186D01*
X0076696Y0048018D01*
X0076382Y0047910D01*
X0076053Y0047866D01*
X0075043Y0047876D01*
X0074733Y0047926D01*
X0074463Y0048016D01*
X0074448Y0048018D01*
X0074434Y0048012D01*
X0074425Y0048000D01*
X0074423Y0047986D01*
X0074423Y0047936D01*
X0068793Y0047936D01*
X0068847Y0047876D02*
X0075060Y0047876D01*
X0074587Y0047974D02*
X0074423Y0047974D01*
X0074322Y0048073D02*
X0073128Y0048073D01*
X0072993Y0048171D02*
X0074150Y0048171D01*
X0073996Y0048270D02*
X0072876Y0048270D01*
X0072788Y0048368D02*
X0073884Y0048368D01*
X0073802Y0048467D02*
X0072700Y0048467D01*
X0072636Y0048565D02*
X0073732Y0048565D01*
X0073678Y0048664D02*
X0072580Y0048664D01*
X0072524Y0048762D02*
X0073636Y0048762D01*
X0073594Y0048861D02*
X0072486Y0048861D01*
X0072455Y0048959D02*
X0073568Y0048959D01*
X0073548Y0049058D02*
X0072424Y0049058D01*
X0072399Y0049156D02*
X0073527Y0049156D01*
X0073522Y0049255D02*
X0072386Y0049255D01*
X0072374Y0049353D02*
X0073522Y0049353D01*
X0073521Y0049452D02*
X0072361Y0049452D01*
X0072349Y0049551D02*
X0073522Y0049551D01*
X0073541Y0049649D02*
X0072342Y0049649D01*
X0072344Y0049748D02*
X0073561Y0049748D01*
X0073581Y0049846D02*
X0072345Y0049846D01*
X0072346Y0049945D02*
X0073611Y0049945D01*
X0073656Y0050043D02*
X0072348Y0050043D01*
X0072357Y0050142D02*
X0073701Y0050142D01*
X0073758Y0050240D02*
X0072372Y0050240D01*
X0072387Y0050339D02*
X0073839Y0050339D01*
X0073920Y0050437D02*
X0072403Y0050437D01*
X0072418Y0050536D02*
X0074042Y0050536D01*
X0074179Y0050634D02*
X0072445Y0050634D01*
X0072476Y0050733D02*
X0074409Y0050733D01*
X0074876Y0050831D02*
X0072508Y0050831D01*
X0072540Y0050930D02*
X0078541Y0050930D01*
X0078580Y0050831D02*
X0076411Y0050831D01*
X0076667Y0050733D02*
X0078618Y0050733D01*
X0078657Y0050634D02*
X0076867Y0050634D01*
X0076997Y0050536D02*
X0078696Y0050536D01*
X0078715Y0050437D02*
X0077126Y0050437D01*
X0077220Y0050339D02*
X0078732Y0050339D01*
X0078748Y0050240D02*
X0077302Y0050240D01*
X0077383Y0050142D02*
X0078765Y0050142D01*
X0078772Y0050043D02*
X0077446Y0050043D01*
X0077497Y0049945D02*
X0078771Y0049945D01*
X0078770Y0049846D02*
X0077535Y0049846D01*
X0077564Y0049748D02*
X0078768Y0049748D01*
X0078767Y0049649D02*
X0077586Y0049649D01*
X0077594Y0049551D02*
X0078766Y0049551D01*
X0078765Y0049452D02*
X0077602Y0049452D01*
X0077598Y0049353D02*
X0078763Y0049353D01*
X0078750Y0049255D02*
X0077594Y0049255D01*
X0077589Y0049156D02*
X0078729Y0049156D01*
X0078695Y0049058D02*
X0077585Y0049058D01*
X0077571Y0048959D02*
X0078656Y0048959D01*
X0078616Y0048861D02*
X0077552Y0048861D01*
X0077505Y0048762D02*
X0078576Y0048762D01*
X0078536Y0048664D02*
X0077442Y0048664D01*
X0077365Y0048565D02*
X0078489Y0048565D01*
X0078431Y0048467D02*
X0077288Y0048467D01*
X0077190Y0048368D02*
X0078349Y0048368D01*
X0078253Y0048270D02*
X0077078Y0048270D01*
X0076958Y0048171D02*
X0078146Y0048171D01*
X0078039Y0048073D02*
X0076789Y0048073D01*
X0076568Y0047974D02*
X0077932Y0047974D01*
X0077823Y0047876D02*
X0076127Y0047876D01*
X0078567Y0047383D02*
X0069291Y0047383D01*
X0069202Y0047482D02*
X0078586Y0047482D01*
X0078604Y0047580D02*
X0069114Y0047580D01*
X0069025Y0047679D02*
X0078623Y0047679D01*
X0078642Y0047777D02*
X0068936Y0047777D01*
X0069380Y0047285D02*
X0078548Y0047285D01*
X0078530Y0047186D02*
X0069469Y0047186D01*
X0069558Y0047088D02*
X0078511Y0047088D01*
X0078492Y0046989D02*
X0069647Y0046989D01*
X0069736Y0046891D02*
X0078474Y0046891D01*
X0078455Y0046792D02*
X0069824Y0046792D01*
X0069913Y0046694D02*
X0078436Y0046694D01*
X0078418Y0046595D02*
X0070002Y0046595D01*
X0070091Y0046497D02*
X0078399Y0046497D01*
X0078380Y0046398D02*
X0070180Y0046398D01*
X0072712Y0044528D02*
X0072950Y0044860D01*
X0073243Y0045146D01*
X0073465Y0045295D01*
X0073711Y0045400D01*
X0073973Y0045456D01*
X0074383Y0045486D01*
X0074798Y0045449D01*
X0075193Y0045316D01*
X0075355Y0045217D01*
X0075493Y0045086D01*
X0075693Y0044814D01*
X0075853Y0044516D01*
X0076093Y0043864D01*
X0076243Y0043186D01*
X0076403Y0042386D01*
X0076513Y0042081D01*
X0076683Y0041806D01*
X0076808Y0041685D01*
X0076963Y0041606D01*
X0077123Y0041578D01*
X0077285Y0041598D01*
X0077433Y0041666D01*
X0077549Y0041767D01*
X0077633Y0041896D01*
X0077698Y0042072D01*
X0077733Y0042256D01*
X0077750Y0042596D01*
X0077733Y0042936D01*
X0077692Y0043139D01*
X0077615Y0043331D01*
X0077503Y0043506D01*
X0077392Y0043622D01*
X0077260Y0043713D01*
X0077113Y0043776D01*
X0077009Y0043800D01*
X0076903Y0043806D01*
X0076903Y0045336D01*
X0077183Y0045306D01*
X0077693Y0044496D01*
X0078213Y0042706D01*
X0077783Y0041056D01*
X0076583Y0041266D01*
X0075553Y0042996D01*
X0074643Y0044666D01*
X0073363Y0044236D01*
X0073013Y0042686D01*
X0074423Y0039836D01*
X0072943Y0042646D01*
X0073303Y0044266D01*
X0074613Y0044706D01*
X0074753Y0044636D01*
X0076643Y0041386D01*
X0077723Y0041196D01*
X0078173Y0042686D01*
X0077643Y0044346D01*
X0077073Y0045116D01*
X0077213Y0045306D01*
X0077433Y0045226D01*
X0077743Y0045086D01*
X0077917Y0044973D01*
X0078073Y0044836D01*
X0078371Y0044458D01*
X0078583Y0044026D01*
X0078728Y0043494D01*
X0078783Y0042946D01*
X0078783Y0042236D01*
X0078722Y0041673D01*
X0078560Y0041130D01*
X0078303Y0040626D01*
X0078157Y0040439D01*
X0077978Y0040283D01*
X0077773Y0040166D01*
X0077346Y0040025D01*
X0076900Y0039974D01*
X0076453Y0040016D01*
X0076260Y0040075D01*
X0076084Y0040173D01*
X0075933Y0040306D01*
X0075721Y0040572D01*
X0075553Y0040868D01*
X0075433Y0041186D01*
X0075093Y0042616D01*
X0074971Y0043082D01*
X0074783Y0043526D01*
X0074686Y0043668D01*
X0074556Y0043780D01*
X0074402Y0043857D01*
X0074235Y0043893D01*
X0074063Y0043886D01*
X0073899Y0043836D01*
X0073753Y0043748D01*
X0073633Y0043626D01*
X0073504Y0043415D01*
X0073423Y0043181D01*
X0073393Y0042936D01*
X0073393Y0042406D01*
X0073423Y0042176D01*
X0073512Y0041934D01*
X0073651Y0041718D01*
X0073833Y0041536D01*
X0074006Y0041429D01*
X0074200Y0041368D01*
X0074403Y0041356D01*
X0074423Y0041356D01*
X0074423Y0039836D01*
X0074283Y0039846D01*
X0074053Y0039886D01*
X0073553Y0040056D01*
X0073318Y0040178D01*
X0073112Y0040343D01*
X0072943Y0040546D01*
X0072643Y0041016D01*
X0072486Y0041353D01*
X0072403Y0041716D01*
X0072333Y0042726D01*
X0072351Y0043248D01*
X0072423Y0043766D01*
X0072534Y0044159D01*
X0072712Y0044528D01*
X0072711Y0044526D02*
X0074228Y0044526D01*
X0074079Y0044526D02*
X0074816Y0044526D01*
X0074719Y0044526D02*
X0075847Y0044526D01*
X0075885Y0044428D02*
X0074772Y0044428D01*
X0074874Y0044428D02*
X0073785Y0044428D01*
X0073935Y0044428D02*
X0072664Y0044428D01*
X0072616Y0044329D02*
X0073642Y0044329D01*
X0073492Y0044329D02*
X0074931Y0044329D01*
X0074826Y0044329D02*
X0075921Y0044329D01*
X0075958Y0044231D02*
X0074880Y0044231D01*
X0074988Y0044231D02*
X0073295Y0044231D01*
X0073362Y0044231D02*
X0072569Y0044231D01*
X0072526Y0044132D02*
X0073340Y0044132D01*
X0073273Y0044132D02*
X0075046Y0044132D01*
X0074933Y0044132D02*
X0075994Y0044132D01*
X0076030Y0044034D02*
X0074987Y0044034D01*
X0075041Y0043935D02*
X0076067Y0043935D01*
X0076099Y0043837D02*
X0075095Y0043837D01*
X0075148Y0043738D02*
X0076121Y0043738D01*
X0076142Y0043640D02*
X0075202Y0043640D01*
X0075255Y0043541D02*
X0076164Y0043541D01*
X0076186Y0043443D02*
X0075309Y0043443D01*
X0075363Y0043344D02*
X0076208Y0043344D01*
X0076230Y0043246D02*
X0075416Y0043246D01*
X0075470Y0043147D02*
X0076251Y0043147D01*
X0076270Y0043049D02*
X0075524Y0043049D01*
X0075580Y0042950D02*
X0076290Y0042950D01*
X0076310Y0042852D02*
X0075638Y0042852D01*
X0075697Y0042753D02*
X0076329Y0042753D01*
X0076349Y0042655D02*
X0075756Y0042655D01*
X0075814Y0042556D02*
X0076369Y0042556D01*
X0076388Y0042458D02*
X0075873Y0042458D01*
X0075932Y0042359D02*
X0076412Y0042359D01*
X0076448Y0042261D02*
X0075990Y0042261D01*
X0076049Y0042162D02*
X0076484Y0042162D01*
X0076524Y0042064D02*
X0076108Y0042064D01*
X0076166Y0041965D02*
X0076585Y0041965D01*
X0076645Y0041867D02*
X0076225Y0041867D01*
X0076284Y0041768D02*
X0076722Y0041768D01*
X0076838Y0041670D02*
X0076342Y0041670D01*
X0076401Y0041571D02*
X0077917Y0041571D01*
X0077836Y0041571D02*
X0078691Y0041571D01*
X0078662Y0041473D02*
X0077806Y0041473D01*
X0077891Y0041473D02*
X0076460Y0041473D01*
X0076518Y0041374D02*
X0077866Y0041374D01*
X0077777Y0041374D02*
X0078633Y0041374D01*
X0078603Y0041276D02*
X0077747Y0041276D01*
X0077840Y0041276D02*
X0076577Y0041276D01*
X0076710Y0041374D02*
X0075388Y0041374D01*
X0075411Y0041276D02*
X0077269Y0041276D01*
X0077090Y0041177D02*
X0077814Y0041177D01*
X0077789Y0041079D02*
X0077653Y0041079D01*
X0077866Y0041670D02*
X0078721Y0041670D01*
X0078732Y0041768D02*
X0077896Y0041768D01*
X0077968Y0041768D02*
X0077550Y0041768D01*
X0077614Y0041867D02*
X0077994Y0041867D01*
X0077925Y0041867D02*
X0078743Y0041867D01*
X0078753Y0041965D02*
X0077955Y0041965D01*
X0078020Y0041965D02*
X0077658Y0041965D01*
X0077695Y0042064D02*
X0078045Y0042064D01*
X0077985Y0042064D02*
X0078764Y0042064D01*
X0078775Y0042162D02*
X0078015Y0042162D01*
X0078071Y0042162D02*
X0077715Y0042162D01*
X0077733Y0042261D02*
X0078097Y0042261D01*
X0078044Y0042261D02*
X0078783Y0042261D01*
X0078783Y0042359D02*
X0078074Y0042359D01*
X0078123Y0042359D02*
X0077738Y0042359D01*
X0077743Y0042458D02*
X0078148Y0042458D01*
X0078104Y0042458D02*
X0078783Y0042458D01*
X0078783Y0042556D02*
X0078134Y0042556D01*
X0078174Y0042556D02*
X0077748Y0042556D01*
X0077747Y0042655D02*
X0078200Y0042655D01*
X0078163Y0042655D02*
X0078783Y0042655D01*
X0078783Y0042753D02*
X0078151Y0042753D01*
X0078199Y0042753D02*
X0077742Y0042753D01*
X0077737Y0042852D02*
X0078171Y0042852D01*
X0078120Y0042852D02*
X0078783Y0042852D01*
X0078782Y0042950D02*
X0078088Y0042950D01*
X0078142Y0042950D02*
X0077730Y0042950D01*
X0077710Y0043049D02*
X0078113Y0043049D01*
X0078057Y0043049D02*
X0078772Y0043049D01*
X0078763Y0043147D02*
X0078026Y0043147D01*
X0078085Y0043147D02*
X0077689Y0043147D01*
X0077649Y0043246D02*
X0078056Y0043246D01*
X0077994Y0043246D02*
X0078753Y0043246D01*
X0078743Y0043344D02*
X0077963Y0043344D01*
X0078027Y0043344D02*
X0077606Y0043344D01*
X0077543Y0043443D02*
X0077999Y0043443D01*
X0077931Y0043443D02*
X0078733Y0043443D01*
X0078715Y0043541D02*
X0077900Y0043541D01*
X0077970Y0043541D02*
X0077469Y0043541D01*
X0077366Y0043640D02*
X0077942Y0043640D01*
X0077868Y0043640D02*
X0078688Y0043640D01*
X0078661Y0043738D02*
X0077837Y0043738D01*
X0077913Y0043738D02*
X0077201Y0043738D01*
X0076903Y0043837D02*
X0077884Y0043837D01*
X0077805Y0043837D02*
X0078634Y0043837D01*
X0078607Y0043935D02*
X0077774Y0043935D01*
X0077856Y0043935D02*
X0076903Y0043935D01*
X0076903Y0044034D02*
X0077827Y0044034D01*
X0077742Y0044034D02*
X0078579Y0044034D01*
X0078530Y0044132D02*
X0077711Y0044132D01*
X0077798Y0044132D02*
X0076903Y0044132D01*
X0076903Y0044231D02*
X0077770Y0044231D01*
X0077680Y0044231D02*
X0078482Y0044231D01*
X0078434Y0044329D02*
X0077648Y0044329D01*
X0077741Y0044329D02*
X0076903Y0044329D01*
X0076903Y0044428D02*
X0077713Y0044428D01*
X0077674Y0044526D02*
X0076903Y0044526D01*
X0076903Y0044625D02*
X0077612Y0044625D01*
X0077549Y0044723D02*
X0076903Y0044723D01*
X0076903Y0044822D02*
X0077487Y0044822D01*
X0077425Y0044920D02*
X0076903Y0044920D01*
X0076903Y0045019D02*
X0077363Y0045019D01*
X0077301Y0045117D02*
X0076903Y0045117D01*
X0076903Y0045216D02*
X0077239Y0045216D01*
X0077147Y0045216D02*
X0077455Y0045216D01*
X0077673Y0045117D02*
X0077074Y0045117D01*
X0077144Y0045019D02*
X0077846Y0045019D01*
X0077977Y0044920D02*
X0077217Y0044920D01*
X0077290Y0044822D02*
X0078084Y0044822D01*
X0078161Y0044723D02*
X0077363Y0044723D01*
X0077436Y0044625D02*
X0078239Y0044625D01*
X0078317Y0044526D02*
X0077509Y0044526D01*
X0077582Y0044428D02*
X0078386Y0044428D01*
X0077102Y0045315D02*
X0076903Y0045315D01*
X0075741Y0044723D02*
X0072852Y0044723D01*
X0072782Y0044625D02*
X0074521Y0044625D01*
X0074665Y0044625D02*
X0075794Y0044625D01*
X0075687Y0044822D02*
X0072923Y0044822D01*
X0073012Y0044920D02*
X0075615Y0044920D01*
X0075542Y0045019D02*
X0073113Y0045019D01*
X0073214Y0045117D02*
X0075460Y0045117D01*
X0075356Y0045216D02*
X0073348Y0045216D01*
X0073511Y0045315D02*
X0075195Y0045315D01*
X0074904Y0045413D02*
X0073774Y0045413D01*
X0074372Y0044625D02*
X0074759Y0044625D01*
X0075103Y0044034D02*
X0073251Y0044034D01*
X0073317Y0044034D02*
X0072499Y0044034D01*
X0072471Y0043935D02*
X0073295Y0043935D01*
X0073229Y0043935D02*
X0075160Y0043935D01*
X0075217Y0043837D02*
X0074443Y0043837D01*
X0074604Y0043738D02*
X0075275Y0043738D01*
X0075332Y0043640D02*
X0074705Y0043640D01*
X0074772Y0043541D02*
X0075389Y0043541D01*
X0075447Y0043443D02*
X0074818Y0043443D01*
X0074860Y0043344D02*
X0075504Y0043344D01*
X0075561Y0043246D02*
X0074902Y0043246D01*
X0074944Y0043147D02*
X0075618Y0043147D01*
X0075676Y0043049D02*
X0074980Y0043049D01*
X0075006Y0042950D02*
X0075733Y0042950D01*
X0075790Y0042852D02*
X0075031Y0042852D01*
X0075057Y0042753D02*
X0075848Y0042753D01*
X0075905Y0042655D02*
X0075083Y0042655D01*
X0075107Y0042556D02*
X0075962Y0042556D01*
X0076020Y0042458D02*
X0075130Y0042458D01*
X0075154Y0042359D02*
X0076077Y0042359D01*
X0076134Y0042261D02*
X0075177Y0042261D01*
X0075201Y0042162D02*
X0076191Y0042162D01*
X0076249Y0042064D02*
X0075224Y0042064D01*
X0075248Y0041965D02*
X0076306Y0041965D01*
X0076363Y0041867D02*
X0075271Y0041867D01*
X0075294Y0041768D02*
X0076421Y0041768D01*
X0076478Y0041670D02*
X0075318Y0041670D01*
X0075341Y0041571D02*
X0076535Y0041571D01*
X0076592Y0041473D02*
X0075365Y0041473D01*
X0075436Y0041177D02*
X0078574Y0041177D01*
X0078534Y0041079D02*
X0075473Y0041079D01*
X0075511Y0040980D02*
X0078483Y0040980D01*
X0078433Y0040882D02*
X0075548Y0040882D01*
X0075601Y0040783D02*
X0078383Y0040783D01*
X0078333Y0040684D02*
X0075657Y0040684D01*
X0075713Y0040586D02*
X0078272Y0040586D01*
X0078195Y0040487D02*
X0075788Y0040487D01*
X0075867Y0040389D02*
X0078100Y0040389D01*
X0077987Y0040290D02*
X0075950Y0040290D01*
X0076063Y0040192D02*
X0077819Y0040192D01*
X0077554Y0040093D02*
X0076228Y0040093D01*
X0076677Y0039995D02*
X0077083Y0039995D01*
X0077437Y0041670D02*
X0077943Y0041670D01*
X0074423Y0041276D02*
X0073665Y0041276D01*
X0073711Y0041276D02*
X0072522Y0041276D01*
X0072482Y0041374D02*
X0073662Y0041374D01*
X0073613Y0041374D02*
X0074180Y0041374D01*
X0073935Y0041473D02*
X0073561Y0041473D01*
X0073613Y0041473D02*
X0072459Y0041473D01*
X0072436Y0041571D02*
X0073564Y0041571D01*
X0073509Y0041571D02*
X0073797Y0041571D01*
X0073699Y0041670D02*
X0073457Y0041670D01*
X0073516Y0041670D02*
X0072413Y0041670D01*
X0072399Y0041768D02*
X0073467Y0041768D01*
X0073405Y0041768D02*
X0073618Y0041768D01*
X0073555Y0041867D02*
X0073353Y0041867D01*
X0073418Y0041867D02*
X0072392Y0041867D01*
X0072385Y0041965D02*
X0073370Y0041965D01*
X0073301Y0041965D02*
X0073500Y0041965D01*
X0073464Y0042064D02*
X0073249Y0042064D01*
X0073321Y0042064D02*
X0072379Y0042064D01*
X0072372Y0042162D02*
X0073272Y0042162D01*
X0073198Y0042162D02*
X0073428Y0042162D01*
X0073412Y0042261D02*
X0073146Y0042261D01*
X0073223Y0042261D02*
X0072365Y0042261D01*
X0072358Y0042359D02*
X0073175Y0042359D01*
X0073094Y0042359D02*
X0073399Y0042359D01*
X0073393Y0042458D02*
X0073042Y0042458D01*
X0073126Y0042458D02*
X0072351Y0042458D01*
X0072344Y0042556D02*
X0073077Y0042556D01*
X0072990Y0042556D02*
X0073393Y0042556D01*
X0073393Y0042655D02*
X0072945Y0042655D01*
X0073028Y0042655D02*
X0072338Y0042655D01*
X0072334Y0042753D02*
X0073028Y0042753D01*
X0072967Y0042753D02*
X0073393Y0042753D01*
X0073393Y0042852D02*
X0072989Y0042852D01*
X0073050Y0042852D02*
X0072337Y0042852D01*
X0072341Y0042950D02*
X0073073Y0042950D01*
X0073011Y0042950D02*
X0073395Y0042950D01*
X0073407Y0043049D02*
X0073032Y0043049D01*
X0073095Y0043049D02*
X0072344Y0043049D01*
X0072348Y0043147D02*
X0073117Y0043147D01*
X0073054Y0043147D02*
X0073419Y0043147D01*
X0073445Y0043246D02*
X0073076Y0043246D01*
X0073139Y0043246D02*
X0072351Y0043246D01*
X0072364Y0043344D02*
X0073162Y0043344D01*
X0073098Y0043344D02*
X0073480Y0043344D01*
X0073521Y0043443D02*
X0073120Y0043443D01*
X0073184Y0043443D02*
X0072378Y0043443D01*
X0072392Y0043541D02*
X0073206Y0043541D01*
X0073142Y0043541D02*
X0073581Y0043541D01*
X0073646Y0043640D02*
X0073164Y0043640D01*
X0073228Y0043640D02*
X0072405Y0043640D01*
X0072419Y0043738D02*
X0073251Y0043738D01*
X0073186Y0043738D02*
X0073743Y0043738D01*
X0073901Y0043837D02*
X0073207Y0043837D01*
X0073273Y0043837D02*
X0072443Y0043837D01*
X0072568Y0041177D02*
X0073759Y0041177D01*
X0073716Y0041177D02*
X0074423Y0041177D01*
X0074423Y0041079D02*
X0073768Y0041079D01*
X0073808Y0041079D02*
X0072614Y0041079D01*
X0072666Y0040980D02*
X0073857Y0040980D01*
X0073820Y0040980D02*
X0074423Y0040980D01*
X0074423Y0040882D02*
X0073872Y0040882D01*
X0073906Y0040882D02*
X0072729Y0040882D01*
X0072791Y0040783D02*
X0073954Y0040783D01*
X0073924Y0040783D02*
X0074423Y0040783D01*
X0074423Y0040684D02*
X0073976Y0040684D01*
X0074003Y0040684D02*
X0072854Y0040684D01*
X0072917Y0040586D02*
X0074052Y0040586D01*
X0074028Y0040586D02*
X0074423Y0040586D01*
X0074423Y0040487D02*
X0074080Y0040487D01*
X0074100Y0040487D02*
X0072992Y0040487D01*
X0073074Y0040389D02*
X0074149Y0040389D01*
X0074132Y0040389D02*
X0074423Y0040389D01*
X0074423Y0040290D02*
X0074183Y0040290D01*
X0074198Y0040290D02*
X0073178Y0040290D01*
X0073301Y0040192D02*
X0074247Y0040192D01*
X0074235Y0040192D02*
X0074423Y0040192D01*
X0074423Y0040093D02*
X0074287Y0040093D01*
X0074295Y0040093D02*
X0073481Y0040093D01*
X0073732Y0039995D02*
X0074344Y0039995D01*
X0074339Y0039995D02*
X0074423Y0039995D01*
X0074423Y0039896D02*
X0074391Y0039896D01*
X0074393Y0039896D02*
X0074022Y0039896D01*
X0072591Y0051028D02*
X0078482Y0051028D01*
X0078423Y0051127D02*
X0072643Y0051127D01*
X0072694Y0051225D02*
X0078364Y0051225D01*
X0078296Y0051324D02*
X0072759Y0051324D01*
X0072834Y0051422D02*
X0078218Y0051422D01*
X0078140Y0051521D02*
X0072909Y0051521D01*
X0073001Y0051619D02*
X0078058Y0051619D01*
X0077947Y0051718D02*
X0073107Y0051718D01*
X0073212Y0051816D02*
X0077836Y0051816D01*
X0077725Y0051915D02*
X0073359Y0051915D01*
X0073510Y0052013D02*
X0077551Y0052013D01*
X0077374Y0052112D02*
X0073661Y0052112D01*
X0073877Y0052210D02*
X0077110Y0052210D01*
X0076802Y0052309D02*
X0074107Y0052309D01*
X0074450Y0052407D02*
X0076493Y0052407D01*
X0075743Y0052506D02*
X0075304Y0052506D01*
X0074918Y0053294D02*
X0073384Y0053294D01*
X0073193Y0053366D02*
X0073003Y0053481D01*
X0072837Y0053629D01*
X0072703Y0053806D01*
X0072464Y0054306D01*
X0072343Y0054846D01*
X0072328Y0055489D01*
X0072423Y0056126D01*
X0072561Y0056534D01*
X0072774Y0056908D01*
X0073053Y0057236D01*
X0073067Y0057257D01*
X0073070Y0057282D01*
X0073063Y0057307D01*
X0073046Y0057326D01*
X0073023Y0057336D01*
X0072613Y0057426D01*
X0072503Y0057456D01*
X0072489Y0057465D01*
X0072481Y0057479D01*
X0072483Y0057496D01*
X0072483Y0059086D01*
X0072563Y0059056D01*
X0073080Y0058917D01*
X0073613Y0058876D01*
X0075323Y0058886D01*
X0075323Y0057276D01*
X0074993Y0057276D01*
X0074559Y0057248D01*
X0074133Y0057166D01*
X0074063Y0057146D01*
X0073958Y0057101D01*
X0073863Y0057036D01*
X0073573Y0056736D01*
X0073495Y0056612D01*
X0073443Y0056476D01*
X0073383Y0056056D01*
X0073403Y0055446D01*
X0073443Y0055254D01*
X0073528Y0055077D01*
X0073653Y0054926D01*
X0073760Y0054844D01*
X0073882Y0054786D01*
X0074013Y0054756D01*
X0074254Y0054751D01*
X0074490Y0054795D01*
X0074713Y0054886D01*
X0074839Y0054973D01*
X0074943Y0055086D01*
X0075059Y0055281D01*
X0075140Y0055493D01*
X0075183Y0055716D01*
X0075243Y0056286D01*
X0075310Y0056676D01*
X0075423Y0057056D01*
X0075465Y0057137D01*
X0075526Y0057205D01*
X0075603Y0057256D01*
X0075603Y0057276D01*
X0075363Y0057276D01*
X0075363Y0058876D01*
X0077263Y0058876D01*
X0077552Y0058840D01*
X0077824Y0058735D01*
X0078063Y0058567D01*
X0078253Y0058346D01*
X0078526Y0057833D01*
X0078693Y0057276D01*
X0078783Y0056591D01*
X0078787Y0055901D01*
X0078703Y0055216D01*
X0078571Y0054732D01*
X0078363Y0054276D01*
X0078137Y0053954D01*
X0077850Y0053685D01*
X0077513Y0053480D01*
X0077143Y0053349D01*
X0076753Y0053296D01*
X0076763Y0053286D01*
X0076763Y0054956D01*
X0076783Y0054956D01*
X0077001Y0054982D01*
X0077207Y0055058D01*
X0077389Y0055181D01*
X0077537Y0055343D01*
X0077643Y0055536D01*
X0077711Y0055766D01*
X0077733Y0056006D01*
X0077713Y0056546D01*
X0077688Y0056699D01*
X0077634Y0056844D01*
X0077553Y0056976D01*
X0077454Y0057083D01*
X0077336Y0057167D01*
X0077203Y0057226D01*
X0076988Y0057272D01*
X0076768Y0057272D01*
X0076553Y0057226D01*
X0076505Y0057205D01*
X0076463Y0057176D01*
X0076353Y0057056D01*
X0076251Y0056879D01*
X0076183Y0056686D01*
X0076093Y0056166D01*
X0076003Y0055296D01*
X0075893Y0054691D01*
X0075703Y0054106D01*
X0075559Y0053832D01*
X0075363Y0053592D01*
X0075123Y0053396D01*
X0074783Y0053227D01*
X0074413Y0053146D01*
X0073995Y0053145D01*
X0073584Y0053219D01*
X0073193Y0053366D01*
X0073149Y0053392D02*
X0075116Y0053392D01*
X0075239Y0053491D02*
X0072991Y0053491D01*
X0072882Y0053589D02*
X0075360Y0053589D01*
X0075441Y0053688D02*
X0072793Y0053688D01*
X0072718Y0053786D02*
X0075522Y0053786D01*
X0075587Y0053885D02*
X0072665Y0053885D01*
X0072618Y0053984D02*
X0075638Y0053984D01*
X0075690Y0054082D02*
X0072571Y0054082D01*
X0072524Y0054181D02*
X0075727Y0054181D01*
X0075759Y0054279D02*
X0072477Y0054279D01*
X0072448Y0054378D02*
X0075791Y0054378D01*
X0075823Y0054476D02*
X0072426Y0054476D01*
X0072404Y0054575D02*
X0075856Y0054575D01*
X0075888Y0054673D02*
X0072382Y0054673D01*
X0072360Y0054772D02*
X0073945Y0054772D01*
X0073725Y0054870D02*
X0072342Y0054870D01*
X0072340Y0054969D02*
X0073618Y0054969D01*
X0073537Y0055067D02*
X0072338Y0055067D01*
X0072335Y0055166D02*
X0073486Y0055166D01*
X0073441Y0055264D02*
X0072333Y0055264D01*
X0072331Y0055363D02*
X0073420Y0055363D01*
X0073402Y0055461D02*
X0072329Y0055461D01*
X0072338Y0055560D02*
X0073399Y0055560D01*
X0073396Y0055658D02*
X0072353Y0055658D01*
X0072368Y0055757D02*
X0073393Y0055757D01*
X0073389Y0055855D02*
X0072382Y0055855D01*
X0072397Y0055954D02*
X0073386Y0055954D01*
X0073383Y0056052D02*
X0072412Y0056052D01*
X0072431Y0056151D02*
X0073396Y0056151D01*
X0073410Y0056249D02*
X0072465Y0056249D01*
X0072498Y0056348D02*
X0073425Y0056348D01*
X0073439Y0056446D02*
X0072532Y0056446D01*
X0072568Y0056545D02*
X0073469Y0056545D01*
X0073514Y0056643D02*
X0072624Y0056643D01*
X0072680Y0056742D02*
X0073579Y0056742D01*
X0073674Y0056840D02*
X0072736Y0056840D01*
X0072800Y0056939D02*
X0073769Y0056939D01*
X0073865Y0057037D02*
X0072884Y0057037D01*
X0072968Y0057136D02*
X0074040Y0057136D01*
X0074487Y0057234D02*
X0073052Y0057234D01*
X0073030Y0057333D02*
X0075323Y0057333D01*
X0075363Y0057333D02*
X0078676Y0057333D01*
X0078698Y0057234D02*
X0077163Y0057234D01*
X0077379Y0057136D02*
X0078711Y0057136D01*
X0078724Y0057037D02*
X0077496Y0057037D01*
X0077576Y0056939D02*
X0078737Y0056939D01*
X0078751Y0056840D02*
X0077635Y0056840D01*
X0077672Y0056742D02*
X0078764Y0056742D01*
X0078777Y0056643D02*
X0077697Y0056643D01*
X0077713Y0056545D02*
X0078784Y0056545D01*
X0078784Y0056446D02*
X0077717Y0056446D01*
X0077720Y0056348D02*
X0078785Y0056348D01*
X0078785Y0056249D02*
X0077724Y0056249D01*
X0077727Y0056151D02*
X0078786Y0056151D01*
X0078786Y0056052D02*
X0077731Y0056052D01*
X0077728Y0055954D02*
X0078786Y0055954D01*
X0078781Y0055855D02*
X0077719Y0055855D01*
X0077708Y0055757D02*
X0078769Y0055757D01*
X0078757Y0055658D02*
X0077679Y0055658D01*
X0077650Y0055560D02*
X0078745Y0055560D01*
X0078733Y0055461D02*
X0077602Y0055461D01*
X0077548Y0055363D02*
X0078721Y0055363D01*
X0078709Y0055264D02*
X0077465Y0055264D01*
X0077366Y0055166D02*
X0078689Y0055166D01*
X0078662Y0055067D02*
X0077220Y0055067D01*
X0076890Y0054969D02*
X0078636Y0054969D01*
X0078609Y0054870D02*
X0076763Y0054870D01*
X0076763Y0054772D02*
X0078582Y0054772D01*
X0078544Y0054673D02*
X0076763Y0054673D01*
X0076763Y0054575D02*
X0078499Y0054575D01*
X0078454Y0054476D02*
X0076763Y0054476D01*
X0076763Y0054378D02*
X0078409Y0054378D01*
X0078364Y0054279D02*
X0076763Y0054279D01*
X0076763Y0054181D02*
X0078296Y0054181D01*
X0078227Y0054082D02*
X0076763Y0054082D01*
X0076763Y0053984D02*
X0078157Y0053984D01*
X0078063Y0053885D02*
X0076763Y0053885D01*
X0076763Y0053786D02*
X0077958Y0053786D01*
X0077853Y0053688D02*
X0076763Y0053688D01*
X0076763Y0053589D02*
X0077692Y0053589D01*
X0077531Y0053491D02*
X0076763Y0053491D01*
X0076763Y0053392D02*
X0077266Y0053392D01*
X0076763Y0053294D02*
X0076755Y0053294D01*
X0075908Y0054772D02*
X0074362Y0054772D01*
X0074674Y0054870D02*
X0075926Y0054870D01*
X0075944Y0054969D02*
X0074834Y0054969D01*
X0074926Y0055067D02*
X0075961Y0055067D01*
X0075979Y0055166D02*
X0074991Y0055166D01*
X0075049Y0055264D02*
X0075997Y0055264D01*
X0076010Y0055363D02*
X0075091Y0055363D01*
X0075128Y0055461D02*
X0076020Y0055461D01*
X0076030Y0055560D02*
X0075153Y0055560D01*
X0075172Y0055658D02*
X0076040Y0055658D01*
X0076051Y0055757D02*
X0075187Y0055757D01*
X0075197Y0055855D02*
X0076061Y0055855D01*
X0076071Y0055954D02*
X0075208Y0055954D01*
X0075218Y0056052D02*
X0076081Y0056052D01*
X0076091Y0056151D02*
X0075229Y0056151D01*
X0075239Y0056249D02*
X0076107Y0056249D01*
X0076124Y0056348D02*
X0075253Y0056348D01*
X0075270Y0056446D02*
X0076141Y0056446D01*
X0076158Y0056545D02*
X0075287Y0056545D01*
X0075304Y0056643D02*
X0076175Y0056643D01*
X0076202Y0056742D02*
X0075329Y0056742D01*
X0075359Y0056840D02*
X0076237Y0056840D01*
X0076285Y0056939D02*
X0075388Y0056939D01*
X0075417Y0057037D02*
X0076342Y0057037D01*
X0076426Y0057136D02*
X0075464Y0057136D01*
X0075570Y0057234D02*
X0076592Y0057234D01*
X0075363Y0057431D02*
X0078646Y0057431D01*
X0078617Y0057530D02*
X0075363Y0057530D01*
X0075323Y0057530D02*
X0072483Y0057530D01*
X0072483Y0057628D02*
X0075323Y0057628D01*
X0075363Y0057628D02*
X0078587Y0057628D01*
X0078557Y0057727D02*
X0075363Y0057727D01*
X0075323Y0057727D02*
X0072483Y0057727D01*
X0072483Y0057825D02*
X0075323Y0057825D01*
X0075363Y0057825D02*
X0078528Y0057825D01*
X0078477Y0057924D02*
X0075363Y0057924D01*
X0075323Y0057924D02*
X0072483Y0057924D01*
X0072483Y0058022D02*
X0075323Y0058022D01*
X0075363Y0058022D02*
X0078425Y0058022D01*
X0078372Y0058121D02*
X0075363Y0058121D01*
X0075323Y0058121D02*
X0072483Y0058121D01*
X0072483Y0058220D02*
X0075323Y0058220D01*
X0075363Y0058220D02*
X0078320Y0058220D01*
X0078267Y0058318D02*
X0075363Y0058318D01*
X0075323Y0058318D02*
X0072483Y0058318D01*
X0072483Y0058417D02*
X0075323Y0058417D01*
X0075363Y0058417D02*
X0078192Y0058417D01*
X0078107Y0058515D02*
X0075363Y0058515D01*
X0075323Y0058515D02*
X0072483Y0058515D01*
X0072483Y0058614D02*
X0075323Y0058614D01*
X0075363Y0058614D02*
X0077996Y0058614D01*
X0077857Y0058712D02*
X0075363Y0058712D01*
X0075323Y0058712D02*
X0072483Y0058712D01*
X0072483Y0058811D02*
X0075323Y0058811D01*
X0075363Y0058811D02*
X0077629Y0058811D01*
X0078343Y0059956D02*
X0078613Y0061476D01*
X0077483Y0061476D01*
X0077463Y0061516D01*
X0077483Y0061576D01*
X0077603Y0061656D01*
X0078013Y0061926D01*
X0078164Y0062051D01*
X0078283Y0062206D01*
X0078513Y0062556D01*
X0078652Y0062796D01*
X0078740Y0063060D01*
X0078773Y0063336D01*
X0078743Y0063876D01*
X0077223Y0063876D01*
X0077223Y0063866D01*
X0077233Y0063806D01*
X0077283Y0063566D01*
X0077283Y0062956D01*
X0077245Y0062735D01*
X0077171Y0062523D01*
X0077063Y0062326D01*
X0076836Y0062056D01*
X0076554Y0061842D01*
X0076233Y0061696D01*
X0075902Y0061615D01*
X0075563Y0061586D01*
X0072483Y0061586D01*
X0072483Y0059946D01*
X0078343Y0059956D01*
X0078349Y0059993D02*
X0072483Y0059993D01*
X0072483Y0060091D02*
X0078367Y0060091D01*
X0078384Y0060190D02*
X0072483Y0060190D01*
X0072483Y0060288D02*
X0078402Y0060288D01*
X0078419Y0060387D02*
X0072483Y0060387D01*
X0072483Y0060485D02*
X0078437Y0060485D01*
X0078454Y0060584D02*
X0072483Y0060584D01*
X0072483Y0060682D02*
X0078472Y0060682D01*
X0078489Y0060781D02*
X0072483Y0060781D01*
X0072483Y0060879D02*
X0078507Y0060879D01*
X0078524Y0060978D02*
X0072483Y0060978D01*
X0072483Y0061076D02*
X0078542Y0061076D01*
X0078559Y0061175D02*
X0072483Y0061175D01*
X0072483Y0061273D02*
X0078577Y0061273D01*
X0078594Y0061372D02*
X0072483Y0061372D01*
X0072483Y0061470D02*
X0078612Y0061470D01*
X0078172Y0062061D02*
X0076841Y0062061D01*
X0076923Y0062160D02*
X0078247Y0062160D01*
X0078317Y0062258D02*
X0077006Y0062258D01*
X0077080Y0062357D02*
X0078382Y0062357D01*
X0078447Y0062455D02*
X0077134Y0062455D01*
X0077182Y0062554D02*
X0078512Y0062554D01*
X0078569Y0062653D02*
X0077217Y0062653D01*
X0077248Y0062751D02*
X0078626Y0062751D01*
X0078670Y0062850D02*
X0077265Y0062850D01*
X0077281Y0062948D02*
X0078702Y0062948D01*
X0078735Y0063047D02*
X0077283Y0063047D01*
X0077283Y0063145D02*
X0078750Y0063145D01*
X0078762Y0063244D02*
X0077283Y0063244D01*
X0077283Y0063342D02*
X0078772Y0063342D01*
X0078767Y0063441D02*
X0077283Y0063441D01*
X0077283Y0063539D02*
X0078762Y0063539D01*
X0078756Y0063638D02*
X0077268Y0063638D01*
X0077247Y0063736D02*
X0078751Y0063736D01*
X0078745Y0063835D02*
X0077228Y0063835D01*
X0076714Y0061963D02*
X0078058Y0061963D01*
X0077919Y0061864D02*
X0076584Y0061864D01*
X0076387Y0061766D02*
X0077770Y0061766D01*
X0077620Y0061667D02*
X0076117Y0061667D01*
X0077480Y0061569D02*
X0072483Y0061569D01*
X0072483Y0059008D02*
X0072742Y0059008D01*
X0072483Y0058909D02*
X0073180Y0058909D01*
X0072593Y0057431D02*
X0075323Y0057431D01*
X0074640Y0053195D02*
X0073714Y0053195D01*
X0072453Y0064616D02*
X0072433Y0064636D01*
X0072433Y0066266D01*
X0074583Y0066266D01*
X0075273Y0066976D01*
X0075243Y0066996D01*
X0072473Y0068676D01*
X0072463Y0070676D01*
X0076393Y0068056D01*
X0078613Y0070326D01*
X0078613Y0068486D01*
X0076373Y0066246D01*
X0080993Y0066246D01*
X0080063Y0064616D01*
X0072453Y0064616D01*
X0072446Y0064623D02*
X0080067Y0064623D01*
X0080123Y0064721D02*
X0072433Y0064721D01*
X0072433Y0064820D02*
X0080179Y0064820D01*
X0080236Y0064918D02*
X0072433Y0064918D01*
X0072433Y0065017D02*
X0080292Y0065017D01*
X0080348Y0065115D02*
X0072433Y0065115D01*
X0072433Y0065214D02*
X0080404Y0065214D01*
X0080460Y0065312D02*
X0072433Y0065312D01*
X0072433Y0065411D02*
X0080517Y0065411D01*
X0080573Y0065509D02*
X0072433Y0065509D01*
X0072433Y0065608D02*
X0080629Y0065608D01*
X0080685Y0065706D02*
X0072433Y0065706D01*
X0072433Y0065805D02*
X0080741Y0065805D01*
X0080798Y0065903D02*
X0072433Y0065903D01*
X0072433Y0066002D02*
X0080854Y0066002D01*
X0080910Y0066100D02*
X0072433Y0066100D01*
X0072433Y0066199D02*
X0080966Y0066199D01*
X0080083Y0068176D02*
X0082243Y0070096D01*
X0082556Y0070437D01*
X0082793Y0070836D01*
X0082846Y0070982D01*
X0082873Y0071136D01*
X0082873Y0072036D01*
X0082922Y0072573D01*
X0083067Y0073092D01*
X0083303Y0073576D01*
X0083625Y0074032D01*
X0084007Y0074438D01*
X0084443Y0074786D01*
X0085105Y0075159D01*
X0085823Y0075406D01*
X0086574Y0075519D01*
X0087333Y0075496D01*
X0087742Y0075414D01*
X0088135Y0075273D01*
X0088503Y0075076D01*
X0088950Y0074719D01*
X0089313Y0074276D01*
X0088963Y0074276D01*
X0088906Y0074268D01*
X0088853Y0074246D01*
X0088708Y0074129D01*
X0088603Y0073976D01*
X0088573Y0073896D01*
X0088549Y0073670D01*
X0088590Y0073447D01*
X0088693Y0073246D01*
X0088953Y0072886D01*
X0089096Y0072719D01*
X0089263Y0072576D01*
X0089450Y0072461D01*
X0089653Y0072376D01*
X0089782Y0072350D01*
X0089913Y0072356D01*
X0090130Y0072421D01*
X0090322Y0072541D01*
X0090476Y0072706D01*
X0090583Y0072906D01*
X0090640Y0073108D01*
X0090663Y0073316D01*
X0090663Y0073556D01*
X0090663Y0073556D01*
X0090673Y0073546D01*
X0090806Y0073375D01*
X0090893Y0073176D01*
X0090953Y0073036D01*
X0090993Y0072946D01*
X0091079Y0072600D01*
X0091113Y0072246D01*
X0091087Y0071904D01*
X0090996Y0071573D01*
X0090843Y0071266D01*
X0090622Y0070960D01*
X0090363Y0070686D01*
X0090125Y0070516D01*
X0089853Y0070411D01*
X0089563Y0070377D01*
X0089273Y0070416D01*
X0089003Y0070526D01*
X0088310Y0070993D01*
X0087703Y0071566D01*
X0087526Y0071717D01*
X0087316Y0071817D01*
X0087087Y0071859D01*
X0086855Y0071841D01*
X0086636Y0071764D01*
X0086444Y0071632D01*
X0086293Y0071456D01*
X0086173Y0071234D01*
X0086092Y0070995D01*
X0086053Y0070746D01*
X0086067Y0070455D01*
X0086152Y0070176D01*
X0086303Y0069926D01*
X0086442Y0069793D01*
X0086613Y0069706D01*
X0086788Y0069667D01*
X0086968Y0069667D01*
X0087143Y0069706D01*
X0087210Y0069741D01*
X0087263Y0069796D01*
X0087503Y0070126D01*
X0087536Y0070188D01*
X0087550Y0070256D01*
X0087543Y0070326D01*
X0087573Y0070136D01*
X0087602Y0069766D01*
X0087573Y0069396D01*
X0087500Y0069120D01*
X0087374Y0068865D01*
X0087199Y0068641D01*
X0086983Y0068456D01*
X0086695Y0068298D01*
X0086380Y0068203D01*
X0086053Y0068176D01*
X0080083Y0068176D01*
X0080186Y0068268D02*
X0086594Y0068268D01*
X0086819Y0068366D02*
X0080297Y0068366D01*
X0080408Y0068465D02*
X0086993Y0068465D01*
X0087108Y0068563D02*
X0080518Y0068563D01*
X0080629Y0068662D02*
X0087215Y0068662D01*
X0087292Y0068760D02*
X0080740Y0068760D01*
X0080851Y0068859D02*
X0087369Y0068859D01*
X0087420Y0068957D02*
X0080962Y0068957D01*
X0081073Y0069056D02*
X0087468Y0069056D01*
X0087509Y0069154D02*
X0081184Y0069154D01*
X0081294Y0069253D02*
X0087535Y0069253D01*
X0087561Y0069351D02*
X0081405Y0069351D01*
X0081516Y0069450D02*
X0087577Y0069450D01*
X0087585Y0069548D02*
X0081627Y0069548D01*
X0081738Y0069647D02*
X0087592Y0069647D01*
X0087600Y0069745D02*
X0087214Y0069745D01*
X0087298Y0069844D02*
X0087596Y0069844D01*
X0087588Y0069942D02*
X0087369Y0069942D01*
X0087441Y0070041D02*
X0087580Y0070041D01*
X0087572Y0070139D02*
X0087510Y0070139D01*
X0087546Y0070238D02*
X0087557Y0070238D01*
X0088276Y0071026D02*
X0090670Y0071026D01*
X0090741Y0071124D02*
X0088171Y0071124D01*
X0088066Y0071223D02*
X0090812Y0071223D01*
X0090871Y0071322D02*
X0087962Y0071322D01*
X0087857Y0071420D02*
X0090920Y0071420D01*
X0090969Y0071519D02*
X0087753Y0071519D01*
X0087643Y0071617D02*
X0091008Y0071617D01*
X0091035Y0071716D02*
X0087527Y0071716D01*
X0087322Y0071814D02*
X0091062Y0071814D01*
X0091088Y0071913D02*
X0082873Y0071913D01*
X0082873Y0072011D02*
X0091095Y0072011D01*
X0091103Y0072110D02*
X0082880Y0072110D01*
X0082889Y0072208D02*
X0091110Y0072208D01*
X0091107Y0072307D02*
X0082897Y0072307D01*
X0082906Y0072405D02*
X0089583Y0072405D01*
X0089380Y0072504D02*
X0082915Y0072504D01*
X0082930Y0072602D02*
X0089232Y0072602D01*
X0089118Y0072701D02*
X0082957Y0072701D01*
X0082985Y0072799D02*
X0089027Y0072799D01*
X0088944Y0072898D02*
X0083012Y0072898D01*
X0083040Y0072996D02*
X0088873Y0072996D01*
X0088802Y0073095D02*
X0083068Y0073095D01*
X0083116Y0073193D02*
X0088731Y0073193D01*
X0088669Y0073292D02*
X0083164Y0073292D01*
X0083212Y0073390D02*
X0088619Y0073390D01*
X0088582Y0073489D02*
X0083260Y0073489D01*
X0083311Y0073587D02*
X0088564Y0073587D01*
X0088550Y0073686D02*
X0083380Y0073686D01*
X0083450Y0073784D02*
X0088561Y0073784D01*
X0088571Y0073883D02*
X0083519Y0073883D01*
X0083589Y0073981D02*
X0088606Y0073981D01*
X0088674Y0074080D02*
X0083670Y0074080D01*
X0083763Y0074178D02*
X0088769Y0074178D01*
X0089151Y0074474D02*
X0084052Y0074474D01*
X0083948Y0074375D02*
X0089232Y0074375D01*
X0089312Y0074277D02*
X0083856Y0074277D01*
X0084176Y0074572D02*
X0089071Y0074572D01*
X0088990Y0074671D02*
X0084299Y0074671D01*
X0084422Y0074769D02*
X0088887Y0074769D01*
X0088764Y0074868D02*
X0084589Y0074868D01*
X0084764Y0074966D02*
X0088640Y0074966D01*
X0088517Y0075065D02*
X0084938Y0075065D01*
X0085119Y0075163D02*
X0088340Y0075163D01*
X0088156Y0075262D02*
X0085405Y0075262D01*
X0085691Y0075360D02*
X0087892Y0075360D01*
X0087517Y0075459D02*
X0086174Y0075459D01*
X0086779Y0071814D02*
X0082873Y0071814D01*
X0082873Y0071716D02*
X0086566Y0071716D01*
X0086431Y0071617D02*
X0082873Y0071617D01*
X0082873Y0071519D02*
X0086347Y0071519D01*
X0086274Y0071420D02*
X0082873Y0071420D01*
X0082873Y0071322D02*
X0086220Y0071322D01*
X0086170Y0071223D02*
X0082873Y0071223D01*
X0082871Y0071124D02*
X0086136Y0071124D01*
X0086103Y0071026D02*
X0082854Y0071026D01*
X0082826Y0070927D02*
X0086082Y0070927D01*
X0086066Y0070829D02*
X0082789Y0070829D01*
X0082730Y0070730D02*
X0086054Y0070730D01*
X0086058Y0070632D02*
X0082672Y0070632D01*
X0082613Y0070533D02*
X0086063Y0070533D01*
X0086073Y0070435D02*
X0082554Y0070435D01*
X0082463Y0070336D02*
X0086103Y0070336D01*
X0086133Y0070238D02*
X0082373Y0070238D01*
X0082283Y0070139D02*
X0086174Y0070139D01*
X0086234Y0070041D02*
X0082181Y0070041D01*
X0082070Y0069942D02*
X0086293Y0069942D01*
X0086389Y0069844D02*
X0081960Y0069844D01*
X0081849Y0069745D02*
X0086536Y0069745D01*
X0088408Y0070927D02*
X0090592Y0070927D01*
X0090498Y0070829D02*
X0088554Y0070829D01*
X0088700Y0070730D02*
X0090405Y0070730D01*
X0090288Y0070632D02*
X0088846Y0070632D01*
X0088992Y0070533D02*
X0090150Y0070533D01*
X0089915Y0070435D02*
X0089227Y0070435D01*
X0090076Y0072405D02*
X0091098Y0072405D01*
X0091088Y0072504D02*
X0090262Y0072504D01*
X0090379Y0072602D02*
X0091079Y0072602D01*
X0091054Y0072701D02*
X0090471Y0072701D01*
X0090526Y0072799D02*
X0091030Y0072799D01*
X0091005Y0072898D02*
X0090578Y0072898D01*
X0090608Y0072996D02*
X0090970Y0072996D01*
X0090928Y0073095D02*
X0090636Y0073095D01*
X0090649Y0073193D02*
X0090885Y0073193D01*
X0090842Y0073292D02*
X0090660Y0073292D01*
X0090663Y0073390D02*
X0090794Y0073390D01*
X0090717Y0073489D02*
X0090663Y0073489D01*
X0080973Y0073596D02*
X0080973Y0074206D01*
X0080943Y0074726D01*
X0080943Y0074736D01*
X0079753Y0074736D01*
X0079753Y0074706D01*
X0079763Y0074596D01*
X0079797Y0074231D01*
X0079763Y0073866D01*
X0079721Y0073742D01*
X0079645Y0073636D01*
X0079543Y0073556D01*
X0079364Y0073482D01*
X0079173Y0073456D01*
X0078623Y0073456D01*
X0078623Y0074626D01*
X0077573Y0074626D01*
X0077573Y0073446D01*
X0072443Y0073446D01*
X0072443Y0071806D01*
X0077563Y0071806D01*
X0077573Y0070236D01*
X0078623Y0071286D01*
X0078623Y0071826D01*
X0078803Y0071826D01*
X0079643Y0071896D01*
X0079866Y0071954D01*
X0080075Y0072052D01*
X0080263Y0072186D01*
X0080542Y0072478D01*
X0080759Y0072820D01*
X0080904Y0073197D01*
X0080973Y0073596D01*
X0080971Y0073587D02*
X0079583Y0073587D01*
X0079681Y0073686D02*
X0080973Y0073686D01*
X0080973Y0073784D02*
X0079735Y0073784D01*
X0079765Y0073883D02*
X0080973Y0073883D01*
X0080973Y0073981D02*
X0079774Y0073981D01*
X0079783Y0074080D02*
X0080973Y0074080D01*
X0080973Y0074178D02*
X0079792Y0074178D01*
X0079793Y0074277D02*
X0080969Y0074277D01*
X0080963Y0074375D02*
X0079783Y0074375D01*
X0079774Y0074474D02*
X0080957Y0074474D01*
X0080952Y0074572D02*
X0079765Y0074572D01*
X0079756Y0074671D02*
X0080946Y0074671D01*
X0080954Y0073489D02*
X0079381Y0073489D01*
X0078623Y0073489D02*
X0077573Y0073489D01*
X0077573Y0073587D02*
X0078623Y0073587D01*
X0078623Y0073686D02*
X0077573Y0073686D01*
X0077573Y0073784D02*
X0078623Y0073784D01*
X0078623Y0073883D02*
X0077573Y0073883D01*
X0077573Y0073981D02*
X0078623Y0073981D01*
X0078623Y0074080D02*
X0077573Y0074080D01*
X0077573Y0074178D02*
X0078623Y0074178D01*
X0078623Y0074277D02*
X0077573Y0074277D01*
X0077573Y0074375D02*
X0078623Y0074375D01*
X0078623Y0074474D02*
X0077573Y0074474D01*
X0077573Y0074572D02*
X0078623Y0074572D01*
X0078643Y0075206D02*
X0078643Y0076836D01*
X0074703Y0076836D01*
X0074366Y0076896D01*
X0074053Y0077036D01*
X0073901Y0077149D01*
X0073776Y0077291D01*
X0073683Y0077456D01*
X0073592Y0077737D01*
X0073559Y0078030D01*
X0073587Y0078324D01*
X0073673Y0078606D01*
X0073792Y0078817D01*
X0073956Y0078995D01*
X0074156Y0079130D01*
X0074383Y0079216D01*
X0074864Y0079306D01*
X0075353Y0079336D01*
X0078623Y0079336D01*
X0078623Y0080996D01*
X0072473Y0080996D01*
X0072473Y0079416D01*
X0073413Y0079416D01*
X0073413Y0079406D01*
X0073061Y0079127D01*
X0072752Y0078802D01*
X0072493Y0078436D01*
X0072445Y0078339D01*
X0072413Y0078236D01*
X0072325Y0077654D01*
X0072313Y0077066D01*
X0072371Y0076659D01*
X0072506Y0076271D01*
X0072713Y0075916D01*
X0072803Y0075816D01*
X0073151Y0075556D01*
X0073541Y0075364D01*
X0073960Y0075246D01*
X0074393Y0075206D01*
X0078643Y0075206D01*
X0078643Y0075262D02*
X0073902Y0075262D01*
X0073553Y0075360D02*
X0078643Y0075360D01*
X0078643Y0075459D02*
X0073348Y0075459D01*
X0073149Y0075557D02*
X0078643Y0075557D01*
X0078643Y0075656D02*
X0073017Y0075656D01*
X0072885Y0075755D02*
X0078643Y0075755D01*
X0078643Y0075853D02*
X0072769Y0075853D01*
X0072692Y0075952D02*
X0078643Y0075952D01*
X0078643Y0076050D02*
X0072635Y0076050D01*
X0072577Y0076149D02*
X0078643Y0076149D01*
X0078643Y0076247D02*
X0072520Y0076247D01*
X0072480Y0076346D02*
X0078643Y0076346D01*
X0078643Y0076444D02*
X0072446Y0076444D01*
X0072411Y0076543D02*
X0078643Y0076543D01*
X0078643Y0076641D02*
X0072377Y0076641D01*
X0072359Y0076740D02*
X0078643Y0076740D01*
X0078623Y0079399D02*
X0073405Y0079399D01*
X0073280Y0079301D02*
X0074838Y0079301D01*
X0074348Y0079202D02*
X0073156Y0079202D01*
X0073039Y0079104D02*
X0074118Y0079104D01*
X0073972Y0079005D02*
X0072945Y0079005D01*
X0072852Y0078907D02*
X0073875Y0078907D01*
X0073787Y0078808D02*
X0072758Y0078808D01*
X0072687Y0078710D02*
X0073731Y0078710D01*
X0073676Y0078611D02*
X0072617Y0078611D01*
X0072547Y0078513D02*
X0073644Y0078513D01*
X0073614Y0078414D02*
X0072482Y0078414D01*
X0072438Y0078316D02*
X0073586Y0078316D01*
X0073577Y0078217D02*
X0072410Y0078217D01*
X0072395Y0078119D02*
X0073567Y0078119D01*
X0073560Y0078020D02*
X0072380Y0078020D01*
X0072365Y0077922D02*
X0073571Y0077922D01*
X0073582Y0077823D02*
X0072351Y0077823D01*
X0072336Y0077725D02*
X0073595Y0077725D01*
X0073627Y0077626D02*
X0072324Y0077626D01*
X0072322Y0077528D02*
X0073659Y0077528D01*
X0073698Y0077429D02*
X0072320Y0077429D01*
X0072318Y0077331D02*
X0073754Y0077331D01*
X0073828Y0077232D02*
X0072316Y0077232D01*
X0072314Y0077134D02*
X0073922Y0077134D01*
X0074054Y0077035D02*
X0072317Y0077035D01*
X0072331Y0076937D02*
X0074275Y0076937D01*
X0074690Y0076838D02*
X0072345Y0076838D01*
X0072473Y0079498D02*
X0078623Y0079498D01*
X0078623Y0079596D02*
X0072473Y0079596D01*
X0072473Y0079695D02*
X0078623Y0079695D01*
X0078623Y0079793D02*
X0072473Y0079793D01*
X0072473Y0079892D02*
X0078623Y0079892D01*
X0078623Y0079991D02*
X0072473Y0079991D01*
X0072473Y0080089D02*
X0078623Y0080089D01*
X0078623Y0080188D02*
X0072473Y0080188D01*
X0072473Y0080286D02*
X0078623Y0080286D01*
X0078623Y0080385D02*
X0072473Y0080385D01*
X0072473Y0080483D02*
X0078623Y0080483D01*
X0078623Y0080582D02*
X0072473Y0080582D01*
X0072473Y0080680D02*
X0078623Y0080680D01*
X0078623Y0080779D02*
X0072473Y0080779D01*
X0072473Y0080877D02*
X0078623Y0080877D01*
X0078623Y0080976D02*
X0072473Y0080976D01*
X0072443Y0081976D02*
X0078633Y0081976D01*
X0078633Y0083566D01*
X0077763Y0083566D01*
X0077763Y0083596D01*
X0077771Y0083634D01*
X0077793Y0083666D01*
X0077853Y0083716D01*
X0078003Y0083826D01*
X0078189Y0083984D01*
X0078353Y0084166D01*
X0078576Y0084520D01*
X0078722Y0084912D01*
X0078783Y0085326D01*
X0078763Y0086116D01*
X0078682Y0086501D01*
X0078516Y0086857D01*
X0078273Y0087166D01*
X0078046Y0087358D01*
X0077791Y0087510D01*
X0077513Y0087616D01*
X0077077Y0087710D01*
X0076633Y0087746D01*
X0072483Y0087746D01*
X0072483Y0086136D01*
X0076283Y0086136D01*
X0076572Y0086110D01*
X0076852Y0086032D01*
X0077113Y0085906D01*
X0077274Y0085783D01*
X0077403Y0085627D01*
X0077493Y0085446D01*
X0077526Y0085318D01*
X0077533Y0085186D01*
X0077513Y0084746D01*
X0077478Y0084519D01*
X0077393Y0084305D01*
X0077263Y0084116D01*
X0077030Y0083904D01*
X0076753Y0083756D01*
X0076448Y0083668D01*
X0076133Y0083636D01*
X0072443Y0083636D01*
X0072443Y0081976D01*
X0072443Y0083636D01*
X0075863Y0083636D01*
X0076676Y0083734D02*
X0077877Y0083734D01*
X0077793Y0083666D02*
X0077783Y0083654D01*
X0077774Y0083641D01*
X0077768Y0083627D01*
X0077764Y0083612D01*
X0077763Y0083596D01*
X0077763Y0083566D01*
X0078633Y0083566D01*
X0078633Y0081976D01*
X0072443Y0081976D01*
X0072443Y0082059D02*
X0078633Y0082059D01*
X0078633Y0082158D02*
X0072443Y0082158D01*
X0072443Y0082256D02*
X0078633Y0082256D01*
X0078633Y0082355D02*
X0072443Y0082355D01*
X0072443Y0082453D02*
X0078633Y0082453D01*
X0078633Y0082552D02*
X0072443Y0082552D01*
X0072443Y0082650D02*
X0078633Y0082650D01*
X0078633Y0082749D02*
X0072443Y0082749D01*
X0072443Y0082847D02*
X0078633Y0082847D01*
X0078633Y0082946D02*
X0072443Y0082946D01*
X0072443Y0083044D02*
X0078633Y0083044D01*
X0078633Y0083143D02*
X0072443Y0083143D01*
X0072443Y0083241D02*
X0078633Y0083241D01*
X0078633Y0083340D02*
X0072443Y0083340D01*
X0072443Y0083438D02*
X0078633Y0083438D01*
X0078633Y0083537D02*
X0072443Y0083537D01*
X0072443Y0083635D02*
X0077772Y0083635D01*
X0078010Y0083832D02*
X0076896Y0083832D01*
X0077059Y0083931D02*
X0078126Y0083931D01*
X0078230Y0084029D02*
X0077168Y0084029D01*
X0077271Y0084128D02*
X0078319Y0084128D01*
X0078391Y0084226D02*
X0077339Y0084226D01*
X0077401Y0084325D02*
X0078453Y0084325D01*
X0078516Y0084424D02*
X0077440Y0084424D01*
X0077478Y0084522D02*
X0078577Y0084522D01*
X0078614Y0084621D02*
X0077493Y0084621D01*
X0077509Y0084719D02*
X0078650Y0084719D01*
X0078687Y0084818D02*
X0077516Y0084818D01*
X0077521Y0084916D02*
X0078722Y0084916D01*
X0078737Y0085015D02*
X0077525Y0085015D01*
X0077529Y0085113D02*
X0078751Y0085113D01*
X0078766Y0085212D02*
X0077531Y0085212D01*
X0077526Y0085310D02*
X0078780Y0085310D01*
X0078781Y0085409D02*
X0077502Y0085409D01*
X0077462Y0085507D02*
X0078778Y0085507D01*
X0078776Y0085606D02*
X0077413Y0085606D01*
X0077339Y0085704D02*
X0078773Y0085704D01*
X0078771Y0085803D02*
X0077248Y0085803D01*
X0077119Y0085901D02*
X0078768Y0085901D01*
X0078766Y0086000D02*
X0076919Y0086000D01*
X0077513Y0087616D02*
X0077590Y0087592D01*
X0077667Y0087564D01*
X0077742Y0087533D01*
X0077815Y0087498D01*
X0077887Y0087460D01*
X0077956Y0087418D01*
X0078024Y0087374D01*
X0078090Y0087326D01*
X0078153Y0087276D01*
X0078214Y0087222D01*
X0078273Y0087166D01*
X0078254Y0087182D02*
X0072483Y0087182D01*
X0072483Y0087280D02*
X0078138Y0087280D01*
X0078012Y0087379D02*
X0072483Y0087379D01*
X0072483Y0087477D02*
X0077845Y0087477D01*
X0077617Y0087576D02*
X0072483Y0087576D01*
X0072483Y0087674D02*
X0077242Y0087674D01*
X0076633Y0087746D02*
X0072483Y0087746D01*
X0072483Y0086136D01*
X0076283Y0086136D01*
X0076613Y0086098D02*
X0078763Y0086098D01*
X0078746Y0086197D02*
X0072483Y0086197D01*
X0072483Y0086295D02*
X0078725Y0086295D01*
X0078705Y0086394D02*
X0072483Y0086394D01*
X0072483Y0086492D02*
X0078684Y0086492D01*
X0078640Y0086591D02*
X0072483Y0086591D01*
X0072483Y0086689D02*
X0078594Y0086689D01*
X0078548Y0086788D02*
X0072483Y0086788D01*
X0072483Y0086886D02*
X0078493Y0086886D01*
X0078415Y0086985D02*
X0072483Y0086985D01*
X0072483Y0087083D02*
X0078338Y0087083D01*
X0078274Y0087166D02*
X0078328Y0087109D01*
X0078379Y0087049D01*
X0078428Y0086987D01*
X0078474Y0086923D01*
X0078517Y0086857D01*
X0078556Y0086789D01*
X0078593Y0086719D01*
X0078626Y0086648D01*
X0078656Y0086575D01*
X0078683Y0086501D01*
X0078706Y0086425D01*
X0078726Y0086349D01*
X0078742Y0086272D01*
X0078755Y0086194D01*
X0078764Y0086116D01*
X0078353Y0084166D02*
X0078301Y0084103D01*
X0078246Y0084042D01*
X0078189Y0083984D01*
X0078129Y0083929D01*
X0078067Y0083876D01*
X0078003Y0083826D01*
X0077853Y0083716D02*
X0077822Y0083692D01*
X0077793Y0083666D01*
X0077513Y0087616D02*
X0077406Y0087645D01*
X0077297Y0087670D01*
X0077188Y0087692D01*
X0077078Y0087710D01*
X0076967Y0087725D01*
X0076856Y0087735D01*
X0076745Y0087742D01*
X0076633Y0087746D01*
X0078782Y0085326D02*
X0078777Y0085242D01*
X0078768Y0085159D01*
X0078756Y0085076D01*
X0078740Y0084993D01*
X0078721Y0084912D01*
X0078699Y0084831D01*
X0078673Y0084751D01*
X0078644Y0084672D01*
X0078611Y0084595D01*
X0078576Y0084519D01*
X0078537Y0084445D01*
X0078495Y0084372D01*
X0078451Y0084301D01*
X0078403Y0084232D01*
X0078352Y0084165D01*
X0077533Y0085186D02*
X0077534Y0085230D01*
X0077532Y0085274D01*
X0077526Y0085318D01*
X0077518Y0085362D01*
X0077507Y0085404D01*
X0077494Y0085446D01*
X0077493Y0085446D02*
X0077472Y0085497D01*
X0077449Y0085547D01*
X0077422Y0085596D01*
X0077392Y0085642D01*
X0077360Y0085687D01*
X0077325Y0085730D01*
X0077287Y0085770D01*
X0077247Y0085808D01*
X0077204Y0085843D01*
X0077160Y0085876D01*
X0077113Y0085906D01*
X0076753Y0083756D02*
X0076678Y0083729D01*
X0076602Y0083706D01*
X0076526Y0083685D01*
X0076448Y0083668D01*
X0076370Y0083655D01*
X0076291Y0083645D01*
X0076212Y0083639D01*
X0076133Y0083636D01*
X0077113Y0085905D02*
X0077044Y0085944D01*
X0076973Y0085980D01*
X0076901Y0086012D01*
X0076827Y0086041D01*
X0076752Y0086065D01*
X0076675Y0086087D01*
X0076598Y0086104D01*
X0076520Y0086118D01*
X0076441Y0086127D01*
X0076362Y0086133D01*
X0076283Y0086135D01*
X0077263Y0084116D02*
X0077216Y0084064D01*
X0077166Y0084015D01*
X0077113Y0083969D01*
X0077058Y0083925D01*
X0077001Y0083885D01*
X0076942Y0083848D01*
X0076880Y0083814D01*
X0076817Y0083783D01*
X0076753Y0083756D01*
X0077262Y0084116D02*
X0077302Y0084164D01*
X0077338Y0084215D01*
X0077372Y0084268D01*
X0077402Y0084324D01*
X0077428Y0084380D01*
X0077451Y0084439D01*
X0077471Y0084498D01*
X0077487Y0084559D01*
X0077499Y0084620D01*
X0077507Y0084683D01*
X0077512Y0084745D01*
X0078782Y0085326D02*
X0078786Y0085458D01*
X0078787Y0085589D01*
X0078785Y0085721D01*
X0078780Y0085853D01*
X0078773Y0085984D01*
X0078762Y0086116D01*
X0076769Y0091233D02*
X0076183Y0091116D01*
X0075203Y0091086D01*
X0074724Y0091143D01*
X0074260Y0091275D01*
X0073823Y0091477D01*
X0073423Y0091746D01*
X0073099Y0092049D01*
X0072830Y0092402D01*
X0072622Y0092794D01*
X0072483Y0093216D01*
X0072372Y0093831D01*
X0072333Y0094456D01*
X0072370Y0094922D01*
X0072481Y0095375D01*
X0072663Y0095806D01*
X0072986Y0096297D01*
X0073403Y0096712D01*
X0073895Y0097032D01*
X0074443Y0097246D01*
X0074626Y0097283D01*
X0074813Y0097296D01*
X0074833Y0097296D01*
X0074833Y0095696D01*
X0074562Y0095654D01*
X0074303Y0095567D01*
X0074063Y0095436D01*
X0073885Y0095288D01*
X0073743Y0095106D01*
X0073633Y0094889D01*
X0073562Y0094657D01*
X0073533Y0094416D01*
X0073549Y0094092D01*
X0073623Y0093776D01*
X0073758Y0093487D01*
X0073957Y0093238D01*
X0074211Y0093044D01*
X0074503Y0092916D01*
X0075111Y0092778D01*
X0075733Y0092726D01*
X0076191Y0092763D01*
X0076634Y0092886D01*
X0077046Y0093089D01*
X0077413Y0093366D01*
X0077535Y0093512D01*
X0077613Y0093686D01*
X0077686Y0094017D01*
X0077713Y0094356D01*
X0077679Y0094694D01*
X0077573Y0095016D01*
X0077450Y0095220D01*
X0077284Y0095390D01*
X0077084Y0095519D01*
X0076859Y0095599D01*
X0076623Y0095626D01*
X0076613Y0095626D01*
X0076613Y0097276D01*
X0077088Y0097183D01*
X0077543Y0097016D01*
X0077963Y0096764D01*
X0078318Y0096427D01*
X0078593Y0096021D01*
X0078773Y0095566D01*
X0078898Y0095010D01*
X0078973Y0094446D01*
X0078964Y0093839D01*
X0078833Y0093246D01*
X0078592Y0092698D01*
X0078251Y0092206D01*
X0072979Y0092206D01*
X0072904Y0092304D02*
X0078319Y0092304D01*
X0078251Y0092206D02*
X0077823Y0091788D01*
X0077323Y0091460D01*
X0076769Y0091233D01*
X0076708Y0091221D02*
X0074450Y0091221D01*
X0074164Y0091319D02*
X0076980Y0091319D01*
X0077220Y0091418D02*
X0073951Y0091418D01*
X0073765Y0091516D02*
X0077409Y0091516D01*
X0077559Y0091615D02*
X0073618Y0091615D01*
X0073471Y0091713D02*
X0077709Y0091713D01*
X0077847Y0091812D02*
X0073352Y0091812D01*
X0073247Y0091910D02*
X0077948Y0091910D01*
X0078049Y0092009D02*
X0073142Y0092009D01*
X0073054Y0092107D02*
X0078150Y0092107D01*
X0078388Y0092403D02*
X0072829Y0092403D01*
X0072777Y0092501D02*
X0078456Y0092501D01*
X0078524Y0092600D02*
X0072725Y0092600D01*
X0072673Y0092698D02*
X0078592Y0092698D01*
X0078635Y0092797D02*
X0076312Y0092797D01*
X0076653Y0092895D02*
X0078679Y0092895D01*
X0078722Y0092994D02*
X0076853Y0092994D01*
X0077051Y0093093D02*
X0078765Y0093093D01*
X0078809Y0093191D02*
X0077181Y0093191D01*
X0077312Y0093290D02*
X0078842Y0093290D01*
X0078864Y0093388D02*
X0077432Y0093388D01*
X0077514Y0093487D02*
X0078886Y0093487D01*
X0078908Y0093585D02*
X0077568Y0093585D01*
X0077612Y0093684D02*
X0078929Y0093684D01*
X0078951Y0093782D02*
X0077634Y0093782D01*
X0077656Y0093881D02*
X0078964Y0093881D01*
X0078966Y0093979D02*
X0077678Y0093979D01*
X0077691Y0094078D02*
X0078967Y0094078D01*
X0078969Y0094176D02*
X0077699Y0094176D01*
X0077707Y0094275D02*
X0078970Y0094275D01*
X0078972Y0094373D02*
X0077711Y0094373D01*
X0077701Y0094472D02*
X0078969Y0094472D01*
X0078956Y0094570D02*
X0077692Y0094570D01*
X0077682Y0094669D02*
X0078943Y0094669D01*
X0078930Y0094767D02*
X0077655Y0094767D01*
X0077622Y0094866D02*
X0078917Y0094866D01*
X0078904Y0094964D02*
X0077590Y0094964D01*
X0077544Y0095063D02*
X0078887Y0095063D01*
X0078864Y0095161D02*
X0077485Y0095161D01*
X0077411Y0095260D02*
X0078842Y0095260D01*
X0078820Y0095358D02*
X0077315Y0095358D01*
X0077180Y0095457D02*
X0078797Y0095457D01*
X0078775Y0095555D02*
X0076982Y0095555D01*
X0076613Y0095654D02*
X0078738Y0095654D01*
X0078699Y0095752D02*
X0076613Y0095752D01*
X0076613Y0095851D02*
X0078660Y0095851D01*
X0078621Y0095949D02*
X0076613Y0095949D01*
X0076613Y0096048D02*
X0078575Y0096048D01*
X0078508Y0096146D02*
X0076613Y0096146D01*
X0076613Y0096245D02*
X0078441Y0096245D01*
X0078375Y0096343D02*
X0076613Y0096343D01*
X0076613Y0096442D02*
X0078302Y0096442D01*
X0078198Y0096540D02*
X0076613Y0096540D01*
X0076613Y0096639D02*
X0078094Y0096639D01*
X0077991Y0096737D02*
X0076613Y0096737D01*
X0076613Y0096836D02*
X0077842Y0096836D01*
X0077678Y0096934D02*
X0076613Y0096934D01*
X0076613Y0097033D02*
X0077496Y0097033D01*
X0077228Y0097131D02*
X0076613Y0097131D01*
X0076613Y0097230D02*
X0076848Y0097230D01*
X0076668Y0098018D02*
X0074494Y0098018D01*
X0074253Y0098056D02*
X0075783Y0097816D01*
X0077183Y0098136D01*
X0078253Y0098976D01*
X0078913Y0100306D01*
X0078983Y0100886D01*
X0078983Y0100906D01*
X0078963Y0100956D01*
X0077813Y0100956D01*
X0077753Y0100516D01*
X0077493Y0100046D01*
X0077053Y0099726D01*
X0076693Y0099566D01*
X0076103Y0099456D01*
X0075363Y0099436D01*
X0074863Y0099506D01*
X0074403Y0099656D01*
X0073983Y0099876D01*
X0073573Y0100546D01*
X0073483Y0101256D01*
X0073723Y0101966D01*
X0074123Y0102406D01*
X0074613Y0102626D01*
X0075233Y0102776D01*
X0075803Y0102776D01*
X0076573Y0102676D01*
X0077223Y0102376D01*
X0077553Y0102036D01*
X0077763Y0101646D01*
X0077803Y0101166D01*
X0077803Y0101126D01*
X0078973Y0101146D01*
X0078873Y0101936D01*
X0078653Y0102576D01*
X0078113Y0103356D01*
X0077613Y0103786D01*
X0076693Y0104196D01*
X0075833Y0104306D01*
X0075003Y0104206D01*
X0074033Y0103936D01*
X0073523Y0103616D01*
X0073073Y0103146D01*
X0072763Y0102706D01*
X0072513Y0101976D01*
X0072413Y0100986D01*
X0072573Y0099806D01*
X0073273Y0098686D01*
X0074253Y0098056D01*
X0074158Y0098117D02*
X0077099Y0098117D01*
X0077284Y0098215D02*
X0074005Y0098215D01*
X0073852Y0098314D02*
X0077409Y0098314D01*
X0077535Y0098412D02*
X0073699Y0098412D01*
X0073545Y0098511D02*
X0077660Y0098511D01*
X0077786Y0098609D02*
X0073392Y0098609D01*
X0073259Y0098708D02*
X0077911Y0098708D01*
X0078036Y0098806D02*
X0073198Y0098806D01*
X0073136Y0098905D02*
X0078162Y0098905D01*
X0078266Y0099003D02*
X0073074Y0099003D01*
X0073013Y0099102D02*
X0078315Y0099102D01*
X0078364Y0099200D02*
X0072951Y0099200D01*
X0072890Y0099299D02*
X0078413Y0099299D01*
X0078462Y0099397D02*
X0072828Y0099397D01*
X0072767Y0099496D02*
X0074936Y0099496D01*
X0074592Y0099594D02*
X0072705Y0099594D01*
X0072644Y0099693D02*
X0074332Y0099693D01*
X0074144Y0099791D02*
X0072582Y0099791D01*
X0072561Y0099890D02*
X0073974Y0099890D01*
X0073914Y0099988D02*
X0072548Y0099988D01*
X0072535Y0100087D02*
X0073854Y0100087D01*
X0073793Y0100185D02*
X0072521Y0100185D01*
X0072508Y0100284D02*
X0073733Y0100284D01*
X0073673Y0100382D02*
X0072495Y0100382D01*
X0072481Y0100481D02*
X0073613Y0100481D01*
X0073569Y0100579D02*
X0072468Y0100579D01*
X0072455Y0100678D02*
X0073556Y0100678D01*
X0073544Y0100776D02*
X0072441Y0100776D01*
X0072428Y0100875D02*
X0073531Y0100875D01*
X0073519Y0100973D02*
X0072415Y0100973D01*
X0072422Y0101072D02*
X0073506Y0101072D01*
X0073494Y0101170D02*
X0072432Y0101170D01*
X0072442Y0101269D02*
X0073487Y0101269D01*
X0073520Y0101367D02*
X0072452Y0101367D01*
X0072461Y0101466D02*
X0073554Y0101466D01*
X0073587Y0101564D02*
X0072471Y0101564D01*
X0072481Y0101663D02*
X0073620Y0101663D01*
X0073654Y0101762D02*
X0072491Y0101762D01*
X0072501Y0101860D02*
X0073687Y0101860D01*
X0073720Y0101959D02*
X0072511Y0101959D01*
X0072541Y0102057D02*
X0073806Y0102057D01*
X0073895Y0102156D02*
X0072574Y0102156D01*
X0072608Y0102254D02*
X0073985Y0102254D01*
X0074074Y0102353D02*
X0072642Y0102353D01*
X0072676Y0102451D02*
X0074223Y0102451D01*
X0074443Y0102550D02*
X0072709Y0102550D01*
X0072743Y0102648D02*
X0074704Y0102648D01*
X0075111Y0102747D02*
X0072792Y0102747D01*
X0072861Y0102845D02*
X0078466Y0102845D01*
X0078398Y0102944D02*
X0072930Y0102944D01*
X0073000Y0103042D02*
X0078330Y0103042D01*
X0078262Y0103141D02*
X0073069Y0103141D01*
X0073162Y0103239D02*
X0078194Y0103239D01*
X0078126Y0103338D02*
X0073257Y0103338D01*
X0073351Y0103436D02*
X0078020Y0103436D01*
X0077905Y0103535D02*
X0073445Y0103535D01*
X0073551Y0103633D02*
X0077790Y0103633D01*
X0077676Y0103732D02*
X0073708Y0103732D01*
X0073865Y0103830D02*
X0077513Y0103830D01*
X0077292Y0103929D02*
X0074021Y0103929D01*
X0074361Y0104027D02*
X0077071Y0104027D01*
X0076850Y0104126D02*
X0074715Y0104126D01*
X0075155Y0104224D02*
X0076470Y0104224D01*
X0076143Y0099506D02*
X0076005Y0099497D01*
X0075866Y0099492D01*
X0075727Y0099490D01*
X0075588Y0099491D01*
X0075450Y0099496D01*
X0075311Y0099504D01*
X0075173Y0099515D01*
X0074273Y0102416D02*
X0074360Y0102460D01*
X0074449Y0102501D01*
X0074539Y0102539D01*
X0074631Y0102573D01*
X0074723Y0102604D01*
X0074817Y0102632D01*
X0074912Y0102656D01*
X0075008Y0102676D01*
X0075104Y0102693D01*
X0075201Y0102707D01*
X0075298Y0102717D01*
X0075396Y0102723D01*
X0075493Y0102726D01*
X0074893Y0097866D02*
X0075018Y0097847D01*
X0075143Y0097832D01*
X0075269Y0097821D01*
X0075396Y0097813D01*
X0075522Y0097808D01*
X0075648Y0097807D01*
X0075775Y0097810D01*
X0075901Y0097816D01*
X0076027Y0097826D01*
X0076153Y0097839D01*
X0076278Y0097856D01*
X0076403Y0097876D01*
X0076237Y0097920D02*
X0075121Y0097920D01*
X0075749Y0097821D02*
X0075806Y0097821D01*
X0076483Y0102616D02*
X0076361Y0102642D01*
X0076238Y0102665D01*
X0076115Y0102685D01*
X0075991Y0102700D01*
X0075867Y0102712D01*
X0075743Y0102721D01*
X0075618Y0102725D01*
X0075493Y0102726D01*
X0076029Y0102747D02*
X0078535Y0102747D01*
X0078603Y0102648D02*
X0076633Y0102648D01*
X0076847Y0102550D02*
X0078662Y0102550D01*
X0078696Y0102451D02*
X0077060Y0102451D01*
X0077246Y0102353D02*
X0078730Y0102353D01*
X0078763Y0102254D02*
X0077341Y0102254D01*
X0077437Y0102156D02*
X0078797Y0102156D01*
X0078831Y0102057D02*
X0077532Y0102057D01*
X0077594Y0101959D02*
X0078865Y0101959D01*
X0078882Y0101860D02*
X0077647Y0101860D01*
X0077701Y0101762D02*
X0078895Y0101762D01*
X0078907Y0101663D02*
X0077754Y0101663D01*
X0077770Y0101564D02*
X0078920Y0101564D01*
X0078932Y0101466D02*
X0077778Y0101466D01*
X0077786Y0101367D02*
X0078945Y0101367D01*
X0078957Y0101269D02*
X0077794Y0101269D01*
X0077802Y0101170D02*
X0078970Y0101170D01*
X0079013Y0101146D02*
X0079013Y0101086D01*
X0077763Y0101086D01*
X0077743Y0101006D02*
X0077743Y0100916D01*
X0077802Y0100875D02*
X0078981Y0100875D01*
X0078970Y0100776D02*
X0077788Y0100776D01*
X0077775Y0100678D02*
X0078958Y0100678D01*
X0078946Y0100579D02*
X0077761Y0100579D01*
X0077733Y0100481D02*
X0078934Y0100481D01*
X0078922Y0100382D02*
X0077679Y0100382D01*
X0077625Y0100284D02*
X0078902Y0100284D01*
X0078853Y0100185D02*
X0077570Y0100185D01*
X0077516Y0100087D02*
X0078804Y0100087D01*
X0078755Y0099988D02*
X0077414Y0099988D01*
X0077278Y0099890D02*
X0078706Y0099890D01*
X0078658Y0099791D02*
X0077143Y0099791D01*
X0076978Y0099693D02*
X0078609Y0099693D01*
X0078560Y0099594D02*
X0076757Y0099594D01*
X0076317Y0099496D02*
X0078511Y0099496D01*
X0079013Y0101006D02*
X0077743Y0101006D01*
X0072563Y0102395D02*
X0072524Y0102270D01*
X0072489Y0102144D01*
X0072457Y0102017D01*
X0072429Y0101888D01*
X0072405Y0101760D01*
X0072385Y0101630D01*
X0072369Y0101500D01*
X0072356Y0101369D01*
X0072348Y0101238D01*
X0072344Y0101107D01*
X0072343Y0100976D01*
X0073732Y0101846D02*
X0073762Y0101906D01*
X0073794Y0101964D01*
X0073830Y0102020D01*
X0073869Y0102074D01*
X0073911Y0102126D01*
X0073956Y0102175D01*
X0074003Y0102223D01*
X0074052Y0102267D01*
X0074104Y0102309D01*
X0074158Y0102348D01*
X0074214Y0102384D01*
X0074272Y0102416D01*
X0074103Y0104026D02*
X0074010Y0103987D01*
X0073918Y0103945D01*
X0073829Y0103899D01*
X0073741Y0103850D01*
X0073655Y0103797D01*
X0073571Y0103742D01*
X0073489Y0103683D01*
X0073410Y0103621D01*
X0073333Y0103556D01*
X0073258Y0103489D01*
X0073186Y0103418D01*
X0073117Y0103345D01*
X0073051Y0103269D01*
X0072987Y0103191D01*
X0072927Y0103110D01*
X0072870Y0103027D01*
X0072816Y0102943D01*
X0072765Y0102856D01*
X0072718Y0102767D01*
X0072674Y0102676D01*
X0072633Y0102584D01*
X0072596Y0102490D01*
X0072563Y0102395D01*
X0073653Y0100526D02*
X0073677Y0100459D01*
X0073704Y0100394D01*
X0073735Y0100330D01*
X0073769Y0100269D01*
X0073806Y0100209D01*
X0073847Y0100151D01*
X0073891Y0100096D01*
X0073938Y0100043D01*
X0073988Y0099992D01*
X0074040Y0099945D01*
X0074095Y0099900D01*
X0074152Y0099859D01*
X0074212Y0099821D01*
X0074273Y0099786D01*
X0073133Y0098806D02*
X0073189Y0098740D01*
X0073248Y0098676D01*
X0073310Y0098614D01*
X0073373Y0098555D01*
X0073439Y0098498D01*
X0073507Y0098443D01*
X0073577Y0098391D01*
X0073649Y0098342D01*
X0073723Y0098296D01*
X0074150Y0097131D02*
X0074833Y0097131D01*
X0074833Y0097033D02*
X0073897Y0097033D01*
X0073745Y0096934D02*
X0074833Y0096934D01*
X0074833Y0096836D02*
X0073594Y0096836D01*
X0073443Y0096737D02*
X0074833Y0096737D01*
X0074833Y0096639D02*
X0073330Y0096639D01*
X0073231Y0096540D02*
X0074833Y0096540D01*
X0074833Y0096442D02*
X0073132Y0096442D01*
X0073033Y0096343D02*
X0074833Y0096343D01*
X0074833Y0096245D02*
X0072952Y0096245D01*
X0072887Y0096146D02*
X0074833Y0096146D01*
X0074833Y0096048D02*
X0072822Y0096048D01*
X0072757Y0095949D02*
X0074833Y0095949D01*
X0074833Y0095851D02*
X0072693Y0095851D01*
X0072640Y0095752D02*
X0074833Y0095752D01*
X0074561Y0095654D02*
X0072599Y0095654D01*
X0072557Y0095555D02*
X0074282Y0095555D01*
X0074101Y0095457D02*
X0072516Y0095457D01*
X0072477Y0095358D02*
X0073970Y0095358D01*
X0073863Y0095260D02*
X0072453Y0095260D01*
X0072429Y0095161D02*
X0073786Y0095161D01*
X0073721Y0095063D02*
X0072405Y0095063D01*
X0072381Y0094964D02*
X0073671Y0094964D01*
X0073626Y0094866D02*
X0072366Y0094866D01*
X0072358Y0094767D02*
X0073596Y0094767D01*
X0073566Y0094669D02*
X0072350Y0094669D01*
X0072342Y0094570D02*
X0073552Y0094570D01*
X0073540Y0094472D02*
X0072334Y0094472D01*
X0072338Y0094373D02*
X0073535Y0094373D01*
X0073540Y0094275D02*
X0072344Y0094275D01*
X0072350Y0094176D02*
X0073545Y0094176D01*
X0073553Y0094078D02*
X0072356Y0094078D01*
X0072362Y0093979D02*
X0073576Y0093979D01*
X0073599Y0093881D02*
X0072369Y0093881D01*
X0072380Y0093782D02*
X0073621Y0093782D01*
X0073666Y0093684D02*
X0072398Y0093684D01*
X0072416Y0093585D02*
X0073712Y0093585D01*
X0073758Y0093487D02*
X0072434Y0093487D01*
X0072452Y0093388D02*
X0073837Y0093388D01*
X0073916Y0093290D02*
X0072469Y0093290D01*
X0072491Y0093191D02*
X0074019Y0093191D01*
X0074147Y0093093D02*
X0072523Y0093093D01*
X0072556Y0092994D02*
X0074325Y0092994D01*
X0074592Y0092895D02*
X0072589Y0092895D01*
X0072621Y0092797D02*
X0075026Y0092797D01*
X0075863Y0083636D02*
X0075998Y0083635D01*
X0076133Y0083636D01*
X0076215Y0091122D02*
X0074898Y0091122D01*
X0074833Y0097230D02*
X0074403Y0097230D01*
X0074103Y0104026D02*
X0074231Y0104075D01*
X0074361Y0104120D01*
X0074491Y0104161D01*
X0074623Y0104198D01*
X0074756Y0104232D01*
X0074890Y0104262D01*
X0075025Y0104289D01*
X0075160Y0104311D01*
X0075296Y0104330D01*
X0075432Y0104345D01*
X0075569Y0104356D01*
X0075706Y0104363D01*
X0075843Y0104366D01*
X0076343Y0106726D02*
X0072483Y0106726D01*
X0072483Y0105026D01*
X0078803Y0105026D01*
X0078803Y0106596D01*
X0077933Y0106596D01*
X0077953Y0106686D01*
X0078123Y0106816D01*
X0078433Y0107116D01*
X0078673Y0107416D01*
X0078833Y0107766D01*
X0078933Y0108196D01*
X0078983Y0108736D01*
X0078955Y0109113D01*
X0078853Y0109476D01*
X0078694Y0109787D01*
X0078479Y0110062D01*
X0078215Y0110291D01*
X0077913Y0110466D01*
X0077917Y0110484D01*
X0077927Y0110500D01*
X0077963Y0110536D01*
X0078153Y0110716D01*
X0078452Y0111026D01*
X0078703Y0111376D01*
X0078858Y0111693D01*
X0078949Y0112034D01*
X0078973Y0112386D01*
X0078931Y0112890D01*
X0078833Y0113386D01*
X0072473Y0113386D01*
X0072473Y0113484D02*
X0078796Y0113484D01*
X0078833Y0113386D02*
X0078704Y0113727D01*
X0078504Y0114032D01*
X0078243Y0114286D01*
X0077873Y0114517D01*
X0077464Y0114670D01*
X0077033Y0114736D01*
X0072473Y0114736D01*
X0072473Y0113066D01*
X0076523Y0113066D01*
X0076878Y0113023D01*
X0077213Y0112896D01*
X0077374Y0112786D01*
X0077505Y0112643D01*
X0077599Y0112473D01*
X0077653Y0112286D01*
X0077680Y0111920D01*
X0077643Y0111556D01*
X0077590Y0111385D01*
X0077502Y0111229D01*
X0077383Y0111096D01*
X0077167Y0110938D01*
X0076923Y0110827D01*
X0076663Y0110766D01*
X0076223Y0110736D01*
X0072473Y0110736D01*
X0072473Y0109036D01*
X0076633Y0109036D01*
X0076903Y0109004D01*
X0077158Y0108908D01*
X0077383Y0108756D01*
X0078981Y0108756D01*
X0078974Y0108854D02*
X0077237Y0108854D01*
X0077383Y0108756D02*
X0077516Y0108611D01*
X0077613Y0108440D01*
X0077670Y0108252D01*
X0077683Y0108056D01*
X0077663Y0107716D01*
X0077629Y0107534D01*
X0077554Y0107364D01*
X0077443Y0107216D01*
X0077063Y0106886D01*
X0076840Y0106768D01*
X0076594Y0106714D01*
X0076343Y0106726D01*
X0076873Y0106786D02*
X0078083Y0106786D01*
X0078193Y0106884D02*
X0077060Y0106884D01*
X0077174Y0106983D02*
X0078295Y0106983D01*
X0078397Y0107081D02*
X0077288Y0107081D01*
X0077401Y0107180D02*
X0078484Y0107180D01*
X0078563Y0107278D02*
X0077490Y0107278D01*
X0077560Y0107377D02*
X0078642Y0107377D01*
X0078701Y0107475D02*
X0077603Y0107475D01*
X0077636Y0107574D02*
X0078745Y0107574D01*
X0078790Y0107672D02*
X0077655Y0107672D01*
X0077666Y0107771D02*
X0078834Y0107771D01*
X0078857Y0107869D02*
X0077672Y0107869D01*
X0077678Y0107968D02*
X0078880Y0107968D01*
X0078903Y0108066D02*
X0077682Y0108066D01*
X0077675Y0108165D02*
X0078925Y0108165D01*
X0078939Y0108263D02*
X0077666Y0108263D01*
X0077637Y0108362D02*
X0078948Y0108362D01*
X0078957Y0108460D02*
X0077602Y0108460D01*
X0077546Y0108559D02*
X0078966Y0108559D01*
X0078975Y0108657D02*
X0077473Y0108657D01*
X0077039Y0108953D02*
X0078967Y0108953D01*
X0078960Y0109051D02*
X0072473Y0109051D01*
X0072473Y0109150D02*
X0078945Y0109150D01*
X0078917Y0109248D02*
X0072473Y0109248D01*
X0072473Y0109347D02*
X0078889Y0109347D01*
X0078861Y0109445D02*
X0072473Y0109445D01*
X0072473Y0109544D02*
X0078818Y0109544D01*
X0078768Y0109642D02*
X0072473Y0109642D01*
X0072473Y0109741D02*
X0078717Y0109741D01*
X0078653Y0109839D02*
X0072473Y0109839D01*
X0072473Y0109938D02*
X0078576Y0109938D01*
X0078499Y0110036D02*
X0072473Y0110036D01*
X0072473Y0110135D02*
X0078395Y0110135D01*
X0078282Y0110233D02*
X0072473Y0110233D01*
X0072473Y0110332D02*
X0078144Y0110332D01*
X0077974Y0110430D02*
X0072473Y0110430D01*
X0072473Y0110529D02*
X0077956Y0110529D01*
X0078060Y0110628D02*
X0072473Y0110628D01*
X0072473Y0110726D02*
X0078163Y0110726D01*
X0078258Y0110825D02*
X0076915Y0110825D01*
X0077134Y0110923D02*
X0078352Y0110923D01*
X0078447Y0111022D02*
X0077281Y0111022D01*
X0077405Y0111120D02*
X0078519Y0111120D01*
X0078590Y0111219D02*
X0077493Y0111219D01*
X0077552Y0111317D02*
X0078660Y0111317D01*
X0078722Y0111416D02*
X0077600Y0111416D01*
X0077630Y0111514D02*
X0078770Y0111514D01*
X0078818Y0111613D02*
X0077649Y0111613D01*
X0077659Y0111711D02*
X0078862Y0111711D01*
X0078889Y0111810D02*
X0077669Y0111810D01*
X0077679Y0111908D02*
X0078915Y0111908D01*
X0078941Y0112007D02*
X0077674Y0112007D01*
X0077666Y0112105D02*
X0078954Y0112105D01*
X0078960Y0112204D02*
X0077659Y0112204D01*
X0077648Y0112302D02*
X0078967Y0112302D01*
X0078972Y0112401D02*
X0077620Y0112401D01*
X0077585Y0112499D02*
X0078963Y0112499D01*
X0078955Y0112598D02*
X0077530Y0112598D01*
X0077456Y0112696D02*
X0078947Y0112696D01*
X0078939Y0112795D02*
X0077361Y0112795D01*
X0077216Y0112893D02*
X0078930Y0112893D01*
X0078910Y0112992D02*
X0076960Y0112992D01*
X0077472Y0114666D02*
X0072473Y0114666D01*
X0072473Y0114568D02*
X0077737Y0114568D01*
X0077950Y0114469D02*
X0072473Y0114469D01*
X0072473Y0114371D02*
X0078107Y0114371D01*
X0078257Y0114272D02*
X0072473Y0114272D01*
X0072473Y0114174D02*
X0078358Y0114174D01*
X0078459Y0114075D02*
X0072473Y0114075D01*
X0072473Y0113977D02*
X0078540Y0113977D01*
X0078605Y0113878D02*
X0072473Y0113878D01*
X0072473Y0113780D02*
X0078669Y0113780D01*
X0078721Y0113681D02*
X0072473Y0113681D01*
X0072473Y0113583D02*
X0078758Y0113583D01*
X0078852Y0113287D02*
X0072473Y0113287D01*
X0072473Y0113189D02*
X0078872Y0113189D01*
X0078891Y0113090D02*
X0072473Y0113090D01*
X0072483Y0106687D02*
X0077954Y0106687D01*
X0078803Y0106589D02*
X0072483Y0106589D01*
X0072483Y0106490D02*
X0078803Y0106490D01*
X0078803Y0106392D02*
X0072483Y0106392D01*
X0072483Y0106293D02*
X0078803Y0106293D01*
X0078803Y0106195D02*
X0072483Y0106195D01*
X0072483Y0106096D02*
X0078803Y0106096D01*
X0078803Y0105997D02*
X0072483Y0105997D01*
X0072483Y0105899D02*
X0078803Y0105899D01*
X0078803Y0105800D02*
X0072483Y0105800D01*
X0072483Y0105702D02*
X0078803Y0105702D01*
X0078803Y0105603D02*
X0072483Y0105603D01*
X0072483Y0105505D02*
X0078803Y0105505D01*
X0078803Y0105406D02*
X0072483Y0105406D01*
X0072483Y0105308D02*
X0078803Y0105308D01*
X0078803Y0105209D02*
X0072483Y0105209D01*
X0072483Y0105111D02*
X0078803Y0105111D01*
X0077403Y0102115D02*
X0077446Y0102072D01*
X0077486Y0102026D01*
X0077524Y0101977D01*
X0077558Y0101926D01*
X0077590Y0101874D01*
X0077618Y0101819D01*
X0077642Y0101763D01*
X0077664Y0101706D01*
X0077743Y0100916D02*
X0077741Y0100849D01*
X0077736Y0100783D01*
X0077727Y0100717D01*
X0077715Y0100652D01*
X0077699Y0100587D01*
X0077679Y0100524D01*
X0077657Y0100461D01*
X0077631Y0100400D01*
X0077602Y0100341D01*
X0077569Y0100282D01*
X0077534Y0100226D01*
X0077495Y0100172D01*
X0077454Y0100120D01*
X0077410Y0100070D01*
X0077363Y0100023D01*
X0077314Y0099978D01*
X0077263Y0099936D01*
X0077403Y0102116D02*
X0077338Y0102176D01*
X0077270Y0102233D01*
X0077200Y0102286D01*
X0077128Y0102337D01*
X0077053Y0102384D01*
X0076976Y0102428D01*
X0076898Y0102468D01*
X0076818Y0102505D01*
X0076736Y0102539D01*
X0076653Y0102568D01*
X0076568Y0102594D01*
X0076483Y0102616D01*
X0077263Y0099936D02*
X0077193Y0099885D01*
X0077121Y0099836D01*
X0077048Y0099790D01*
X0076972Y0099747D01*
X0076894Y0099708D01*
X0076815Y0099672D01*
X0076735Y0099639D01*
X0076653Y0099609D01*
X0076570Y0099583D01*
X0076486Y0099561D01*
X0076401Y0099542D01*
X0076316Y0099526D01*
X0076230Y0099515D01*
X0076143Y0099507D01*
X0076403Y0097876D02*
X0076512Y0097897D01*
X0076620Y0097923D01*
X0076727Y0097952D01*
X0076833Y0097985D01*
X0076937Y0098022D01*
X0077041Y0098062D01*
X0077142Y0098106D01*
X0077243Y0098154D01*
X0077341Y0098205D01*
X0077437Y0098260D01*
X0077532Y0098318D01*
X0077624Y0098380D01*
X0077714Y0098444D01*
X0077801Y0098512D01*
X0077887Y0098583D01*
X0077969Y0098657D01*
X0078049Y0098734D01*
X0078126Y0098814D01*
X0078200Y0098897D01*
X0078271Y0098982D01*
X0078339Y0099069D01*
X0078404Y0099159D01*
X0078465Y0099252D01*
X0078524Y0099346D01*
X0073132Y0098805D02*
X0073059Y0098898D01*
X0072989Y0098992D01*
X0072922Y0099089D01*
X0072859Y0099188D01*
X0072799Y0099290D01*
X0072743Y0099393D01*
X0072690Y0099498D01*
X0072640Y0099605D01*
X0072594Y0099713D01*
X0072552Y0099823D01*
X0072514Y0099934D01*
X0072479Y0100047D01*
X0072449Y0100160D01*
X0072422Y0100275D01*
X0072399Y0100390D01*
X0072379Y0100507D01*
X0072364Y0100623D01*
X0072353Y0100740D01*
X0072346Y0100858D01*
X0072342Y0100976D01*
X0073653Y0100526D02*
X0073629Y0100607D01*
X0073609Y0100689D01*
X0073592Y0100772D01*
X0073580Y0100855D01*
X0073571Y0100940D01*
X0073566Y0101024D01*
X0073565Y0101109D01*
X0073568Y0101193D01*
X0073575Y0101277D01*
X0073586Y0101361D01*
X0073601Y0101444D01*
X0073620Y0101527D01*
X0073643Y0101608D01*
X0073669Y0101689D01*
X0073700Y0101768D01*
X0073733Y0101845D01*
X0074273Y0099786D02*
X0074357Y0099744D01*
X0074443Y0099704D01*
X0074531Y0099668D01*
X0074619Y0099636D01*
X0074709Y0099607D01*
X0074801Y0099581D01*
X0074893Y0099560D01*
X0074985Y0099541D01*
X0075079Y0099527D01*
X0075173Y0099516D01*
X0074893Y0097866D02*
X0074781Y0097886D01*
X0074669Y0097911D01*
X0074559Y0097939D01*
X0074449Y0097970D01*
X0074341Y0098006D01*
X0074234Y0098045D01*
X0074128Y0098088D01*
X0074024Y0098135D01*
X0073922Y0098185D01*
X0073821Y0098239D01*
X0073723Y0098296D01*
X0079013Y0101146D02*
X0079011Y0101257D01*
X0079006Y0101368D01*
X0078997Y0101479D01*
X0078985Y0101590D01*
X0078970Y0101700D01*
X0078951Y0101809D01*
X0078928Y0101918D01*
X0078903Y0102026D01*
X0078902Y0102026D02*
X0078873Y0102133D01*
X0078840Y0102238D01*
X0078803Y0102342D01*
X0078763Y0102445D01*
X0078719Y0102546D01*
X0078671Y0102646D01*
X0078620Y0102743D01*
X0078565Y0102839D01*
X0078507Y0102933D01*
X0078446Y0103025D01*
X0078381Y0103114D01*
X0078313Y0103201D01*
X0078242Y0103286D01*
X0078243Y0103286D02*
X0078170Y0103367D01*
X0078095Y0103445D01*
X0078017Y0103520D01*
X0077936Y0103593D01*
X0077853Y0103663D01*
X0077767Y0103730D01*
X0077680Y0103794D01*
X0077590Y0103855D01*
X0077498Y0103913D01*
X0077404Y0103967D01*
X0077308Y0104019D01*
X0077211Y0104067D01*
X0077112Y0104111D01*
X0077011Y0104152D01*
X0076909Y0104190D01*
X0076806Y0104224D01*
X0076702Y0104254D01*
X0076597Y0104281D01*
X0076490Y0104305D01*
X0076384Y0104324D01*
X0076276Y0104340D01*
X0076168Y0104352D01*
X0076060Y0104360D01*
X0075951Y0104365D01*
X0075843Y0104366D01*
X0079012Y0101006D02*
X0079006Y0100889D01*
X0078995Y0100773D01*
X0078981Y0100657D01*
X0078963Y0100542D01*
X0078942Y0100428D01*
X0078916Y0100314D01*
X0078887Y0100201D01*
X0078854Y0100089D01*
X0078817Y0099979D01*
X0078777Y0099869D01*
X0078733Y0099761D01*
X0078685Y0099655D01*
X0078634Y0099550D01*
X0078580Y0099447D01*
X0078522Y0099346D01*
X0077763Y0101086D02*
X0077762Y0101165D01*
X0077757Y0101244D01*
X0077750Y0101322D01*
X0077739Y0101400D01*
X0077724Y0101478D01*
X0077707Y0101555D01*
X0077687Y0101631D01*
X0077663Y0101706D01*
X0078003Y0083826D02*
X0077853Y0083716D01*
X0080937Y0073390D02*
X0072443Y0073390D01*
X0072443Y0073292D02*
X0080920Y0073292D01*
X0080903Y0073193D02*
X0072443Y0073193D01*
X0072443Y0073095D02*
X0080865Y0073095D01*
X0080827Y0072996D02*
X0072443Y0072996D01*
X0072443Y0072898D02*
X0080789Y0072898D01*
X0080746Y0072799D02*
X0072443Y0072799D01*
X0072443Y0072701D02*
X0080683Y0072701D01*
X0080621Y0072602D02*
X0072443Y0072602D01*
X0072443Y0072504D02*
X0080558Y0072504D01*
X0080472Y0072405D02*
X0072443Y0072405D01*
X0072443Y0072307D02*
X0080378Y0072307D01*
X0080284Y0072208D02*
X0072443Y0072208D01*
X0072443Y0072110D02*
X0080156Y0072110D01*
X0079988Y0072011D02*
X0072443Y0072011D01*
X0072443Y0071913D02*
X0079707Y0071913D01*
X0078623Y0071814D02*
X0072443Y0071814D01*
X0072463Y0070632D02*
X0072529Y0070632D01*
X0072464Y0070533D02*
X0072677Y0070533D01*
X0072825Y0070435D02*
X0072464Y0070435D01*
X0072465Y0070336D02*
X0072972Y0070336D01*
X0073120Y0070238D02*
X0072465Y0070238D01*
X0072466Y0070139D02*
X0073268Y0070139D01*
X0073416Y0070041D02*
X0072466Y0070041D01*
X0072467Y0069942D02*
X0073563Y0069942D01*
X0073711Y0069844D02*
X0072467Y0069844D01*
X0072468Y0069745D02*
X0073859Y0069745D01*
X0074007Y0069647D02*
X0072468Y0069647D01*
X0072469Y0069548D02*
X0074154Y0069548D01*
X0074302Y0069450D02*
X0072469Y0069450D01*
X0072470Y0069351D02*
X0074450Y0069351D01*
X0074598Y0069253D02*
X0072470Y0069253D01*
X0072470Y0069154D02*
X0074745Y0069154D01*
X0074893Y0069056D02*
X0072471Y0069056D01*
X0072471Y0068957D02*
X0075041Y0068957D01*
X0075189Y0068859D02*
X0072472Y0068859D01*
X0072472Y0068760D02*
X0075337Y0068760D01*
X0075484Y0068662D02*
X0072496Y0068662D01*
X0072659Y0068563D02*
X0075632Y0068563D01*
X0075780Y0068465D02*
X0072821Y0068465D01*
X0072984Y0068366D02*
X0075928Y0068366D01*
X0076075Y0068268D02*
X0073146Y0068268D01*
X0073308Y0068169D02*
X0076223Y0068169D01*
X0076371Y0068071D02*
X0073471Y0068071D01*
X0073633Y0067972D02*
X0078099Y0067972D01*
X0078001Y0067874D02*
X0073796Y0067874D01*
X0073958Y0067775D02*
X0077902Y0067775D01*
X0077804Y0067677D02*
X0074120Y0067677D01*
X0074283Y0067578D02*
X0077705Y0067578D01*
X0077607Y0067480D02*
X0074445Y0067480D01*
X0074608Y0067381D02*
X0077508Y0067381D01*
X0077410Y0067283D02*
X0074770Y0067283D01*
X0074932Y0067184D02*
X0077311Y0067184D01*
X0077213Y0067086D02*
X0075095Y0067086D01*
X0075256Y0066987D02*
X0077114Y0066987D01*
X0077016Y0066888D02*
X0075188Y0066888D01*
X0075092Y0066790D02*
X0076917Y0066790D01*
X0076819Y0066691D02*
X0074996Y0066691D01*
X0074901Y0066593D02*
X0076720Y0066593D01*
X0076622Y0066494D02*
X0074805Y0066494D01*
X0074709Y0066396D02*
X0076523Y0066396D01*
X0076425Y0066297D02*
X0074613Y0066297D01*
X0076407Y0068071D02*
X0078198Y0068071D01*
X0078296Y0068169D02*
X0076504Y0068169D01*
X0076600Y0068268D02*
X0078395Y0068268D01*
X0078493Y0068366D02*
X0076696Y0068366D01*
X0076793Y0068465D02*
X0078592Y0068465D01*
X0078613Y0068563D02*
X0076889Y0068563D01*
X0076985Y0068662D02*
X0078613Y0068662D01*
X0078613Y0068760D02*
X0077082Y0068760D01*
X0077178Y0068859D02*
X0078613Y0068859D01*
X0078613Y0068957D02*
X0077274Y0068957D01*
X0077371Y0069056D02*
X0078613Y0069056D01*
X0078613Y0069154D02*
X0077467Y0069154D01*
X0077563Y0069253D02*
X0078613Y0069253D01*
X0078613Y0069351D02*
X0077660Y0069351D01*
X0077756Y0069450D02*
X0078613Y0069450D01*
X0078613Y0069548D02*
X0077852Y0069548D01*
X0077949Y0069647D02*
X0078613Y0069647D01*
X0078613Y0069745D02*
X0078045Y0069745D01*
X0078141Y0069844D02*
X0078613Y0069844D01*
X0078613Y0069942D02*
X0078238Y0069942D01*
X0078334Y0070041D02*
X0078613Y0070041D01*
X0078613Y0070139D02*
X0078430Y0070139D01*
X0078527Y0070238D02*
X0078613Y0070238D01*
X0078067Y0070730D02*
X0077570Y0070730D01*
X0077570Y0070632D02*
X0077969Y0070632D01*
X0077870Y0070533D02*
X0077571Y0070533D01*
X0077572Y0070435D02*
X0077772Y0070435D01*
X0077673Y0070336D02*
X0077572Y0070336D01*
X0077573Y0070238D02*
X0077575Y0070238D01*
X0077569Y0070829D02*
X0078166Y0070829D01*
X0078264Y0070927D02*
X0077568Y0070927D01*
X0077568Y0071026D02*
X0078363Y0071026D01*
X0078461Y0071124D02*
X0077567Y0071124D01*
X0077567Y0071223D02*
X0078560Y0071223D01*
X0078623Y0071322D02*
X0077566Y0071322D01*
X0077565Y0071420D02*
X0078623Y0071420D01*
X0078623Y0071519D02*
X0077565Y0071519D01*
X0077564Y0071617D02*
X0078623Y0071617D01*
X0078623Y0071716D02*
X0077564Y0071716D01*
X0077513Y0084746D02*
X0077533Y0085186D01*
D13*
X0073398Y0089681D03*
M02*
