%
M48
M72
T01C0.03150
T02C0.04000
%
T01
X44707Y33880
X44707Y41754
X44707Y49628
X44707Y57502
X44707Y65376
X44707Y73250
X44707Y81124
X44707Y88998
X44707Y96872
X44707Y104746
X131321Y104746
X131321Y96872
X131321Y88998
X131321Y81124
X131321Y73250
X131321Y65376
X131321Y57502
X131321Y49628
X131321Y41754
X131321Y33880
T02
X113333Y31006
X113333Y41006
X113333Y51006
X113333Y61006
X113333Y71006
X113333Y81006
X113333Y91006
X113333Y101006
X113333Y111006
X113333Y121006
X62833Y121006
X62833Y111006
X62833Y101006
X62833Y91006
X62833Y81006
X62833Y71006
X62833Y61006
X62833Y51006
X62833Y41006
X62833Y31006
M30
